<?xml version="1.0" encoding="UTF-8" standalone="no"?>
<!DOCTYPE svg PUBLIC "-//W3C//DTD SVG 1.1//EN" "http://www.w3.org/Graphics/SVG/1.1/DTD/svg11.dtd">
<svg xmlns="http://www.w3.org/2000/svg" version="1.1" viewBox="0.00 0.00 500.00 500.00">
<g stroke-width="2.00" fill="none" stroke-linecap="butt">
<path stroke="#340909" vector-effect="non-scaling-stroke" d="
  M 87.17 336.52
  Q 86.97 334.86 86.19 334.32
  Q 85.52 333.86 86.33 333.76
  Q 86.83 333.69 87.00 334.09
  Q 87.18 334.53 87.64 334.69
  C 89.65 335.39 91.15 336.80 93.01 337.83
  Q 97.14 340.10 101.24 342.52
  Q 103.12 343.63 105.23 343.17"
/>
<path stroke="#850302" vector-effect="non-scaling-stroke" d="
  M 105.23 343.17
  Q 120.13 351.05 135.21 359.04
  C 139.37 361.25 143.09 363.94 147.36 366.00
  Q 149.75 367.16 152.36 366.94
  C 153.64 366.83 154.50 365.95 155.32 365.08
  Q 162.12 357.93 168.65 350.36
  Q 175.54 342.37 181.88 335.60
  Q 189.91 327.02 197.57 318.87
  C 205.46 310.48 210.04 301.06 213.45 289.39
  Q 214.11 287.12 214.41 284.78
  Q 214.73 282.29 215.23 279.85
  Q 215.78 277.17 214.93 274.24
  Q 214.35 272.26 214.11 270.42
  C 213.82 268.12 212.79 266.46 212.32 264.27
  Q 211.97 262.66 211.17 261.28
  C 210.35 259.85 210.22 258.08 209.08 256.95
  Q 208.67 256.55 208.64 255.98
  Q 208.58 254.88 207.91 254.09
  Q 206.23 252.13 204.58 250.20
  Q 203.75 249.21 203.06 248.07
  Q 201.50 245.47 198.81 243.91
  Q 197.09 242.91 195.52 241.40
  Q 192.72 238.68 189.25 237.13
  Q 180.58 233.24 171.19 234.36"
/>
<path stroke="#ae514b" vector-effect="non-scaling-stroke" d="
  M 171.19 234.36
  Q 163.93 233.88 157.09 237.74"
/>
<path stroke="#850302" vector-effect="non-scaling-stroke" d="
  M 157.09 237.74
  Q 147.45 241.36 142.84 249.34
  Q 138.93 256.10 135.78 259.50
  A 1.23 1.20 19.7 0 1 134.93 259.89
  Q 134.23 259.93 133.68 260.19"
/>
<path stroke="#970101" vector-effect="non-scaling-stroke" d="
  M 133.68 260.19
  Q 133.04 260.09 133.00 260.37"
/>
<path stroke="#850302" vector-effect="non-scaling-stroke" d="
  M 133.00 260.37
  Q 127.54 258.55 123.88 255.12
  Q 116.16 247.88 106.02 247.25"
/>
<path stroke="#970101" vector-effect="non-scaling-stroke" d="
  M 106.02 247.25
  Q 100.42 245.25 92.62 247.35"
/>
<path stroke="#850302" vector-effect="non-scaling-stroke" d="
  M 92.62 247.35
  Q 84.47 249.38 80.14 252.16
  Q 75.59 255.07 73.51 256.89
  Q 71.91 258.29 70.24 260.30
  Q 70.17 260.38 68.79 261.71
  Q 67.43 263.02 66.99 264.84
  A 2.11 2.07 73.9 0 1 66.50 265.75
  Q 65.30 267.04 65.08 268.88
  C 64.94 269.97 64.15 271.05 63.42 271.85
  Q 63.09 272.21 63.07 272.70
  Q 63.04 273.86 62.50 274.86
  Q 61.82 276.12 61.67 276.83
  Q 61.27 278.73 60.83 280.46
  Q 60.37 282.28 60.32 284.10
  Q 60.22 287.92 59.91 292.14
  C 59.77 294.09 60.33 295.73 60.88 297.48
  C 61.26 298.70 61.01 299.52 60.89 300.70
  Q 60.85 301.14 61.23 301.37
  Q 61.37 301.45 61.45 301.60
  C 61.81 302.27 61.54 303.23 61.73 304.01
  Q 61.88 304.58 62.49 305.35
  Q 63.87 307.08 64.33 309.06"
/>
<path stroke="#340909" vector-effect="non-scaling-stroke" d="
  M 64.33 309.06
  Q 62.97 308.94 62.57 307.63
  Q 62.39 307.06 61.89 307.40
  L 61.36 307.77"
/>
<path stroke="#340909" vector-effect="non-scaling-stroke" d="
  M 76.39 328.05
  Q 76.87 327.69 77.36 327.90
  Q 78.00 328.17 78.53 328.95
  Q 78.63 329.09 78.60 329.24
  Q 78.44 329.93 79.00 329.50
  Q 79.21 329.34 79.51 329.53
  Q 79.74 329.68 79.54 329.87
  Q 79.42 329.98 79.46 330.11
  Q 79.55 330.38 79.82 330.31
  Q 81.10 330.01 82.08 331.43
  Q 82.28 331.72 82.53 331.47
  L 82.73 331.27
  Q 82.88 331.12 82.72 330.97
  Q 79.66 328.14 76.31 325.47
  Q 73.89 323.54 72.25 320.97
  Q 72.14 320.80 71.95 320.85
  Q 71.77 320.90 71.75 321.05
  Q 71.69 321.65 71.54 321.07
  Q 70.90 318.61 68.21 317.48
  Q 68.01 317.39 68.20 317.28
  Q 68.33 317.21 68.34 317.02
  Q 68.34 316.90 68.25 316.81
  Q 67.42 316.04 66.12 315.97"
/>
<path stroke="#5c0a0a" vector-effect="non-scaling-stroke" d="
  M 105.23 343.17
  Q 95.81 338.83 87.21 333.27
  Q 84.55 331.56 81.65 329.00
  Q 79.03 326.68 76.36 324.39
  Q 71.38 320.10 64.33 309.06"
/>
<path stroke="#be0301" vector-effect="non-scaling-stroke" d="
  M 92.62 247.35
  Q 99.53 248.01 106.02 247.25"
/>
<path stroke="#be0301" vector-effect="non-scaling-stroke" d="
  M 133.00 260.37
  Q 132.76 260.77 132.96 261.26
  Q 133.11 261.66 133.46 261.74
  Q 134.32 261.96 134.68 260.89
  A 0.37 0.37 0.0 0 0 134.30 260.40
  Q 134.12 260.42 133.68 260.19"
/>
<path stroke="#d6524c" vector-effect="non-scaling-stroke" d="
  M 157.09 237.74
  L 171.19 234.36"
/>
<path stroke="#850302" vector-effect="non-scaling-stroke" d="
  M 180.61 148.66
  Q 165.90 149.38 152.01 157.76
  Q 145.56 161.66 141.74 165.19
  Q 139.17 167.57 136.97 170.92
  Q 134.69 174.37 131.61 177.38
  Q 130.23 178.73 129.11 180.33
  Q 127.96 181.97 126.84 183.67
  Q 126.60 184.04 126.59 184.47
  Q 126.57 185.01 126.27 185.46
  Q 123.89 189.05 123.10 193.36
  Q 122.59 196.16 121.38 198.73
  C 120.69 200.21 120.54 201.89 120.08 203.47
  Q 119.94 203.94 119.63 204.34
  Q 119.20 204.87 119.32 205.64
  Q 119.41 206.20 119.23 206.74
  Q 117.85 210.82 117.66 214.76
  Q 116.80 232.60 123.62 249.95
  Q 124.73 252.78 126.39 254.33
  C 128.22 256.06 132.30 259.34 134.77 257.04
  C 137.64 254.36 139.56 249.86 141.78 246.56
  C 145.21 241.46 151.23 237.64 156.78 235.04"
/>
<path stroke="#970101" vector-effect="non-scaling-stroke" d="
  M 156.78 235.04
  Q 175.58 227.64 192.75 236.30
  Q 217.25 248.65 217.54 277.50
  Q 217.61 285.32 213.19 296.83"
/>
<path stroke="#850302" vector-effect="non-scaling-stroke" d="
  M 213.19 296.83
  Q 209.91 304.89 207.42 308.65
  Q 202.05 316.77 195.90 324.40
  A 0.81 0.80 37.7 0 0 196.05 325.55
  Q 214.33 339.25 228.70 351.11
  Q 241.58 361.74 245.19 364.31
  Q 250.54 368.13 255.23 363.20
  Q 255.53 362.90 255.92 362.81
  Q 256.22 362.75 256.37 362.50
  Q 257.19 361.20 258.58 360.66
  Q 259.54 360.28 260.42 359.54
  Q 275.28 347.18 290.45 335.20
  Q 298.72 328.67 307.20 322.67
  A 1.44 1.43 55.4 0 0 307.56 320.69
  C 303.27 314.26 299.17 307.53 295.63 300.35
  Q 294.70 298.46 294.02 295.72"
/>
<path stroke="#340909" vector-effect="non-scaling-stroke" d="
  M 294.02 295.72
  Q 296.34 296.85 296.55 295.45"
/>
<path stroke="#850302" vector-effect="non-scaling-stroke" d="
  M 296.55 295.45
  Q 300.35 304.06 301.59 306.15
  Q 305.87 313.37 316.24 327.98
  C 316.87 328.86 317.40 330.08 318.09 331.04
  Q 327.40 343.94 335.97 357.40
  Q 338.27 361.03 341.36 364.43
  Q 341.71 364.80 342.21 364.91
  Q 344.82 365.47 346.83 364.70
  Q 357.27 360.71 368.43 356.34
  Q 377.94 352.61 387.22 349.50
  Q 399.05 345.54 408.54 341.30
  Q 419.59 336.37 423.48 333.10
  Q 427.92 329.38 432.03 325.10
  Q 436.14 320.82 439.78 314.23
  C 440.56 312.83 440.07 311.35 440.76 309.89
  Q 442.02 307.21 442.50 304.25
  Q 442.98 301.26 443.42 298.47
  Q 444.08 294.30 443.37 290.07
  C 443.10 288.42 442.18 287.15 441.66 285.58
  Q 441.13 284.00 440.17 282.51
  C 438.41 279.79 438.92 275.58 438.70 272.42
  C 438.60 271.11 437.94 269.58 437.11 268.61
  Q 434.66 265.74 431.67 262.58
  Q 428.49 259.20 420.19 255.10"
/>
<path stroke="#970101" vector-effect="non-scaling-stroke" d="
  M 420.19 255.10
  L 416.21 254.31
  Q 415.76 254.22 415.60 253.80
  Q 415.40 253.29 414.78 253.35
  C 412.16 253.57 410.53 252.05 407.83 252.31"
/>
<path stroke="#850302" vector-effect="non-scaling-stroke" d="
  M 407.83 252.31
  Q 399.36 251.62 391.93 254.86
  C 389.19 256.05 386.91 258.23 383.97 259.36
  Q 382.05 260.10 380.15 260.87
  Q 378.24 261.65 376.20 262.14"
/>
<path stroke="#850302" vector-effect="non-scaling-stroke" d="
  M 374.76 261.56
  Q 372.45 259.02 371.86 257.78
  Q 368.82 251.41 365.48 245.20
  Q 364.06 242.57 363.16 241.83
  Q 360.52 239.67 358.18 237.81"
/>
<path stroke="#970101" vector-effect="non-scaling-stroke" d="
  M 358.18 237.81
  Q 353.22 233.60 346.43 231.80"
/>
<path stroke="#850302" vector-effect="non-scaling-stroke" d="
  M 346.43 231.80
  Q 334.53 227.06 322.03 231.55
  Q 319.27 232.54 318.10 234.05
  Q 316.34 236.33 314.09 238.08
  Q 314.00 238.15 313.89 238.11
  Q 313.76 238.07 313.64 238.10
  Q 313.35 238.18 313.11 238.40
  Q 307.10 244.09 303.51 248.31
  Q 301.34 250.86 299.91 253.33
  Q 299.02 254.86 297.61 256.24
  Q 296.34 257.48 295.49 259.61
  Q 295.00 260.81 294.21 261.97
  Q 293.43 263.10 292.79 264.28"
/>
<path stroke="#340909" vector-effect="non-scaling-stroke" d="
  M 292.79 264.28
  Q 293.25 259.51 294.68 256.50
  Q 297.14 251.34 297.96 247.08"
/>
<path stroke="#970101" vector-effect="non-scaling-stroke" d="
  M 297.96 247.08
  Q 301.67 240.37 309.68 235.20
  Q 326.93 224.07 346.77 229.58"
/>
<path stroke="#850302" vector-effect="non-scaling-stroke" d="
  M 346.77 229.58
  Q 365.65 235.33 372.32 254.06
  A 0.76 0.75 48.1 0 0 373.71 254.14
  Q 379.36 242.36 381.03 229.63
  Q 381.63 225.04 380.16 220.89
  Q 379.51 219.04 379.57 217.07
  Q 379.61 215.55 379.30 214.03
  Q 378.66 211.02 378.87 208.00
  C 378.97 206.58 378.38 205.36 378.02 204.02
  Q 377.65 202.68 376.89 201.31
  Q 375.62 198.99 374.67 196.51
  Q 374.62 196.38 374.53 196.30
  Q 374.41 196.20 374.26 196.21
  Q 373.93 196.23 373.87 195.91
  Q 373.22 192.47 371.35 190.40
  Q 369.91 188.80 369.05 187.09
  Q 368.83 186.66 368.47 186.33
  Q 365.89 183.94 363.28 180.13
  Q 360.84 176.57 359.65 173.43
  Q 359.55 173.15 359.35 172.92
  Q 359.07 172.58 358.81 172.21
  Q 358.46 171.71 358.36 171.14
  Q 357.96 168.97 357.44 166.82
  Q 356.97 164.87 355.39 163.61
  Q 346.12 156.23 334.99 152.12
  Q 328.09 149.57 322.76 149.56"
/>
<path stroke="#ae514b" vector-effect="non-scaling-stroke" d="
  M 322.76 149.56
  Q 315.47 147.67 308.25 148.31
  Q 300.72 148.98 293.45 151.33"
/>
<path stroke="#850302" vector-effect="non-scaling-stroke" d="
  M 293.45 151.33
  Q 291.71 151.42 289.27 152.38
  Q 281.92 155.26 275.89 159.60
  Q 272.27 162.20 266.72 168.05
  C 261.73 173.31 257.78 178.09 251.10 182.34"
/>
<path stroke="#ae514b" vector-effect="non-scaling-stroke" d="
  M 251.10 182.34
  L 248.67 181.89"
/>
<path stroke="#850302" vector-effect="non-scaling-stroke" d="
  M 248.67 181.89
  Q 244.43 180.24 241.18 176.82
  Q 236.61 172.01 232.17 167.08
  Q 222.51 156.37 209.17 152.13"
/>
<path stroke="#ae514b" vector-effect="non-scaling-stroke" d="
  M 209.17 152.13
  Q 195.41 146.83 180.61 148.66"
/>
<path stroke="#d6524c" vector-effect="non-scaling-stroke" d="
  M 209.17 152.13
  Q 206.17 152.03 203.25 151.36
  Q 199.07 150.42 197.43 150.23
  Q 189.14 149.30 180.61 148.66"
/>
<path stroke="#d6524c" vector-effect="non-scaling-stroke" d="
  M 248.67 181.89
  Q 246.53 182.56 248.65 183.95
  A 1.67 1.65 -49.3 0 0 250.66 183.79
  Q 251.45 183.08 251.10 182.34"
/>
<path stroke="#be0301" vector-effect="non-scaling-stroke" d="
  M 346.77 229.58
  L 348.75 229.75
  Q 349.35 229.80 349.25 229.22
  Q 349.14 228.60 349.65 228.13
  Q 350.06 227.75 349.99 227.19
  L 349.37 222.01
  Q 349.34 221.77 349.14 221.63
  L 348.80 221.41
  Q 348.44 221.18 348.43 220.75
  Q 348.23 214.82 347.20 209.15
  C 346.91 207.59 347.26 206.13 346.89 204.51
  Q 346.27 201.77 345.77 199.01
  Q 345.60 198.08 344.43 194.64
  Q 343.68 192.43 343.82 189.97"
/>
<path stroke="#d6524c" vector-effect="non-scaling-stroke" d="
  M 343.82 189.97
  L 352.58 190.65
  A 0.63 0.62 86.8 0 0 353.24 189.91
  Q 352.08 183.49 349.35 176.94
  A 1.83 1.81 -2.0 0 0 348.21 175.89
  Q 342.73 174.14 337.13 173.15
  Q 331.62 172.17 323.75 172.96
  Q 312.22 174.13 299.81 179.48"
/>
<path stroke="#be0301" vector-effect="non-scaling-stroke" d="
  M 299.81 179.48
  Q 299.04 179.06 297.48 179.54
  Q 297.01 179.68 296.53 179.53
  Q 295.15 179.07 293.64 178.89
  Q 292.31 178.74 291.09 179.56
  Q 288.60 181.23 287.02 183.29
  Q 284.42 186.69 281.22 189.46
  Q 280.92 189.72 279.77 191.03
  C 278.92 191.99 278.03 192.10 277.12 192.84
  Q 276.68 193.20 276.26 193.49
  Q 270.29 197.61 265.34 201.20
  Q 264.33 201.93 263.00 202.35
  Q 261.79 202.73 260.71 203.48
  Q 260.33 203.75 259.87 203.81
  L 255.52 204.42
  A 0.89 0.88 -84.2 0 0 254.83 204.99
  Q 254.63 205.58 254.14 205.30
  Q 253.79 205.11 253.41 205.23
  Q 253.17 205.30 253.20 205.48
  Q 253.31 205.97 252.81 206.06
  Q 252.19 206.18 251.61 206.48
  Q 250.98 206.80 251.68 206.84
  Q 251.85 206.85 252.00 206.92
  Q 252.64 207.20 252.25 207.77
  Q 251.90 208.27 252.28 208.82
  A 0.08 0.08 0.0 0 0 252.43 208.79
  Q 252.46 208.55 252.57 208.59
  Q 253.55 208.90 252.54 209.08
  Q 251.34 209.28 249.90 209.47"
/>
<path stroke="#d6524c" vector-effect="non-scaling-stroke" d="
  M 249.90 209.47
  Q 242.04 208.09 235.09 201.87
  Q 228.88 196.31 225.67 193.33
  C 222.47 190.35 218.85 187.07 215.00 185.13
  Q 206.46 180.84 196.26 179.27
  Q 195.70 179.18 195.77 179.74
  Q 196.03 181.78 197.12 183.67"
/>
<path stroke="#be0301" vector-effect="non-scaling-stroke" d="
  M 197.12 183.67
  Q 196.47 183.69 196.03 184.00
  Q 195.78 184.18 195.80 183.87
  Q 195.81 183.51 194.72 183.61
  Q 194.50 183.64 194.28 183.67
  Q 192.82 183.87 191.36 183.95
  Q 191.28 183.96 191.23 184.02
  Q 191.19 184.06 191.19 184.11
  Q 191.23 184.42 190.94 184.29
  Q 189.57 183.63 188.95 184.86
  Q 188.77 185.21 188.39 185.29
  Q 188.17 185.34 187.99 185.48
  Q 187.43 185.93 187.66 185.25
  Q 187.72 185.06 187.58 184.93
  Q 187.23 184.57 186.80 184.84
  Q 186.23 185.19 185.59 185.04
  Q 185.01 184.90 184.42 184.97
  Q 181.99 185.25 181.00 185.64
  Q 178.76 186.53 176.22 186.65
  A 2.09 2.02 -61.0 0 0 175.23 186.95
  Q 173.26 188.14 171.15 188.63
  Q 169.13 189.11 167.49 190.08
  Q 163.54 192.42 160.37 194.99
  Q 159.28 195.88 159.31 197.42
  Q 159.32 197.81 158.96 197.67
  Q 158.07 197.31 157.58 198.23
  Q 157.22 198.92 157.12 199.06
  Q 156.34 200.19 155.84 201.44
  Q 155.67 201.88 155.28 202.14
  Q 153.64 203.24 153.91 205.29
  Q 153.96 205.69 153.61 205.89
  Q 152.52 206.53 152.59 207.79
  Q 152.71 209.80 153.17 211.82
  C 153.57 213.53 152.93 215.21 152.94 217.00
  Q 152.94 217.47 152.48 217.41
  Q 151.97 217.34 151.49 217.61
  Q 151.25 217.75 151.15 218.01
  Q 151.00 218.38 151.31 218.74
  A 0.60 0.59 61.5 0 0 151.92 218.93
  Q 152.41 218.78 152.89 218.84
  Q 153.31 218.89 153.36 219.31
  Q 153.60 221.51 153.09 223.53
  Q 152.36 226.38 152.32 229.11
  Q 152.30 230.70 152.90 232.62
  Q 153.25 233.75 154.22 234.32
  Q 155.32 234.96 156.78 235.04"
/>
<path stroke="#d6524c" vector-effect="non-scaling-stroke" d="
  M 322.76 149.56
  C 314.74 149.62 306.39 149.59 298.50 150.77
  Q 295.99 151.15 293.45 151.33"
/>
<path stroke="#e8514b" vector-effect="non-scaling-stroke" d="
  M 343.82 189.97
  Q 341.41 190.04 337.25 190.68
  C 317.96 193.67 299.02 198.30 282.63 208.37
  Q 281.45 209.10 282.10 207.88
  Q 287.72 197.46 290.69 185.83
  C 291.03 184.51 291.58 183.74 292.72 183.13
  Q 296.12 181.31 299.81 179.48"
/>
<path stroke="#6e0909" vector-effect="non-scaling-stroke" d="
  M 297.96 247.08
  Q 293.81 252.62 292.24 258.25
  C 288.91 270.14 290.10 281.73 293.29 293.47"
/>
<path stroke="#be0301" vector-effect="non-scaling-stroke" d="
  M 293.29 293.47
  Q 293.66 295.02 293.04 296.07
  A 1.07 1.06 11.0 0 1 292.26 296.59
  Q 291.15 296.73 290.61 297.75
  Q 286.57 305.29 281.65 312.08
  A 1.20 1.19 10.1 0 1 280.98 312.54
  Q 280.51 312.66 280.24 313.05
  Q 277.00 317.66 273.05 322.90
  C 272.08 324.19 271.42 325.73 270.43 326.91
  C 268.65 329.04 267.52 331.37 266.10 333.72
  Q 265.04 335.46 263.32 337.55
  Q 261.08 340.27 258.97 343.29
  Q 258.73 343.64 258.90 344.03
  Q 259.02 344.28 258.85 344.49
  Q 256.27 347.71 253.42 349.79
  Q 252.61 350.38 251.63 350.60
  Q 249.75 351.02 249.89 350.38
  Q 249.98 349.93 249.56 349.78
  Q 247.31 348.98 245.26 347.02
  Q 241.14 343.11 237.43 338.72
  Q 235.05 335.90 232.56 333.36
  Q 228.87 329.59 227.82 327.80
  Q 223.58 320.55 218.97 314.18
  Q 218.63 313.71 218.68 313.14
  Q 218.71 312.67 218.27 312.43
  A 0.90 0.87 88.2 0 1 217.91 312.08
  Q 213.47 304.25 213.19 296.83"
/>
<path stroke="#e8514b" vector-effect="non-scaling-stroke" d="
  M 197.12 183.67
  C 200.36 191.15 202.45 196.31 206.12 202.17
  C 207.37 204.15 210.45 204.66 212.46 205.58
  C 216.41 207.40 220.47 209.19 224.23 211.31
  Q 230.48 214.85 237.99 217.93
  Q 246.49 221.40 255.13 220.42
  A 1.11 1.11 0.0 0 0 256.07 219.00
  Q 254.71 214.43 254.28 210.15
  Q 254.23 209.57 253.64 209.55
  L 249.90 209.47"
/>
<path stroke="#5c0a0a" vector-effect="non-scaling-stroke" d="
  M 294.02 295.72
  L 293.29 293.47"
/>
<path stroke="#be0301" vector-effect="non-scaling-stroke" d="
  M 346.43 231.80
  L 358.18 237.81"
/>
<path stroke="#be0301" vector-effect="non-scaling-stroke" d="
  M 407.83 252.31
  L 414.77 254.48
  Q 415.28 254.64 415.82 254.58
  Q 417.22 254.41 418.17 255.31
  Q 418.50 255.63 418.96 255.67
  Q 419.89 255.77 420.19 255.10"
/>
<path stroke="#5c0a0a" vector-effect="non-scaling-stroke" d="
  M 296.55 295.45
  Q 290.06 280.70 292.79 264.28"
/>
<path stroke="#d6524c" vector-effect="non-scaling-stroke" d="
  M 428.35 283.57
  L 431.82 284.66
  A 0.55 0.55 0.0 0 0 432.53 284.18
  Q 432.72 281.34 432.59 277.90
  Q 432.52 276.23 431.29 275.47
  C 427.75 273.28 424.40 271.27 420.25 270.30
  Q 409.70 267.81 399.51 270.17
  C 398.41 270.43 397.73 271.39 397.27 272.37"
/>
<path stroke="#be0301" vector-effect="non-scaling-stroke" d="
  M 397.27 272.37
  Q 396.80 272.24 396.56 271.77
  Q 396.28 271.26 395.76 271.51
  Q 395.45 271.65 395.16 271.51
  A 3.76 3.71 -44.7 0 0 391.82 271.52
  Q 389.67 272.60 387.73 274.14
  C 385.63 275.80 382.60 276.68 380.00 276.47
  C 378.14 276.32 375.73 276.06 374.33 277.23
  Q 373.50 277.92 373.19 278.48"
/>
<path stroke="#d6524c" vector-effect="non-scaling-stroke" d="
  M 373.19 278.48
  Q 372.22 277.80 370.83 277.17
  C 365.16 274.56 362.11 267.85 359.28 262.62
  C 356.42 257.33 351.53 253.49 346.25 250.81
  Q 345.75 250.56 345.61 251.09
  Q 345.38 251.93 345.62 252.87"
/>
<path stroke="#be0301" vector-effect="non-scaling-stroke" d="
  M 345.62 252.87
  L 344.53 251.95
  A 0.02 0.02 0.0 0 1 344.54 251.91
  Q 344.82 251.93 344.90 251.71
  Q 345.02 251.40 344.69 251.39
  Q 344.32 251.39 344.14 251.68
  Q 343.84 252.20 343.84 251.60
  Q 343.84 251.28 343.53 251.21
  Q 340.74 250.53 338.04 250.57
  Q 337.70 250.58 337.94 250.34
  Q 338.03 250.24 337.97 250.07
  Q 337.91 249.89 337.73 249.90
  C 334.15 249.92 328.94 249.23 325.71 250.91
  C 322.89 252.37 319.86 252.71 317.54 254.91
  C 316.06 256.31 315.68 258.19 314.68 259.88
  Q 313.57 261.76 312.95 263.78
  Q 311.55 268.38 311.56 273.24
  Q 311.57 276.98 310.91 280.88
  Q 310.89 281.01 310.95 281.12
  Q 311.01 281.26 311.17 281.30
  Q 311.48 281.39 311.40 281.70
  Q 311.08 283.10 311.25 284.27
  Q 311.77 287.87 312.53 291.70
  Q 312.59 291.99 312.83 292.16
  Q 313.01 292.28 313.20 292.37
  A 1.54 1.54 0.0 0 1 313.96 293.16
  Q 314.81 295.11 316.08 296.92
  Q 317.38 298.77 318.50 300.66
  Q 322.28 307.03 325.64 313.40
  Q 328.57 318.98 330.92 327.04
  A 0.49 0.48 88.7 0 0 331.25 327.36
  Q 331.52 327.44 331.60 327.68
  Q 332.96 331.69 334.04 335.61
  Q 334.12 335.91 334.01 336.19
  Q 333.93 336.39 334.03 336.57
  Q 334.55 337.49 334.79 338.40
  Q 335.23 340.17 335.71 342.06
  Q 335.82 342.51 336.19 342.77
  Q 336.54 343.02 336.39 343.43
  A 0.77 0.76 -61.7 0 0 336.65 344.31
  Q 337.18 344.70 337.37 345.31
  Q 338.98 350.52 341.15 354.40
  Q 341.78 355.53 342.48 356.70
  C 343.59 358.53 345.97 358.66 347.80 358.09
  Q 351.62 356.89 354.27 354.44
  Q 355.27 353.52 356.48 352.96
  Q 358.88 351.87 360.73 349.49
  Q 361.25 348.83 362.08 348.67
  Q 362.83 348.53 363.27 347.91
  C 364.49 346.20 366.78 345.05 368.65 344.13
  Q 370.76 343.10 372.42 341.75
  Q 376.23 338.67 380.26 335.90
  Q 383.57 333.63 387.22 332.61
  C 388.98 332.12 390.52 331.13 392.28 330.60
  Q 403.06 327.31 411.86 320.21
  Q 412.45 319.73 412.79 319.04
  Q 413.19 318.25 413.81 317.63
  Q 414.20 317.25 414.33 316.73
  Q 414.66 315.45 415.76 314.34
  Q 416.79 313.31 417.49 312.07
  C 418.41 310.43 419.75 309.18 420.53 307.45
  Q 420.98 306.48 421.44 305.49
  Q 422.10 304.07 422.51 302.41
  C 423.19 299.67 424.29 296.96 424.57 294.15
  Q 424.76 292.25 425.11 290.50
  Q 425.14 290.36 425.24 290.24
  Q 425.36 290.10 425.52 290.01
  Q 425.97 289.76 426.01 289.25
  Q 426.36 284.18 428.35 283.57"
/>
<path stroke="#e8514b" vector-effect="non-scaling-stroke" d="
  M 345.62 252.87
  L 347.54 265.29
  A 1.30 1.28 17.9 0 0 347.90 265.98
  Q 356.16 273.98 362.32 279.72
  Q 366.55 283.66 371.93 284.39
  A 0.52 0.51 -82.3 0 0 372.51 283.94
  L 373.19 278.48"
/>
<path stroke="#e8514b" vector-effect="non-scaling-stroke" d="
  M 397.27 272.37
  L 389.38 282.04
  Q 389.07 282.43 389.56 282.34
  Q 405.72 279.36 421.87 282.19
  Q 423.42 282.46 425.12 282.71
  Q 427.02 282.99 428.35 283.57"
/>
<path stroke="#be0301" vector-effect="non-scaling-stroke" d="
  M 155.35 272.35
  Q 155.50 269.96 154.81 270.29
  Q 154.65 270.37 154.67 270.54
  A 0.15 0.14 -7.8 0 1 154.54 270.70
  Q 152.34 270.92 151.11 272.52
  Q 150.01 273.98 148.32 275.00
  C 146.64 276.00 145.47 277.58 144.19 279.05
  Q 143.82 279.47 143.29 279.63
  Q 142.13 279.97 141.05 281.05"
/>
<path stroke="#d6524c" vector-effect="non-scaling-stroke" d="
  M 141.05 281.05
  L 139.35 276.42
  Q 139.16 275.90 138.61 275.87
  C 137.87 275.82 137.08 276.19 136.28 276.15
  C 129.80 275.88 125.19 272.35 120.11 268.89
  Q 112.40 263.65 102.23 264.29"
/>
<path stroke="#be0301" vector-effect="non-scaling-stroke" d="
  M 102.23 264.29
  Q 101.86 262.26 98.67 264.03
  Q 98.52 264.11 98.38 264.02
  L 98.16 263.88
  Q 97.77 263.64 97.40 263.92
  Q 94.17 266.41 90.66 267.12
  Q 89.01 267.46 87.49 268.56
  C 85.57 269.95 83.05 270.99 81.89 273.13
  Q 81.66 273.56 82.04 273.26
  Q 82.10 273.22 82.14 273.27
  Q 82.31 273.46 82.21 273.71
  Q 81.06 276.78 79.37 279.27
  Q 79.09 279.67 79.07 280.16
  Q 79.05 280.53 78.91 280.87
  Q 78.74 281.27 78.31 281.32
  Q 78.05 281.35 77.90 281.59
  Q 77.71 281.92 78.09 281.96
  Q 78.36 281.99 78.32 282.25
  Q 77.49 287.50 78.85 292.96
  Q 80.22 298.47 82.76 303.49
  Q 83.83 305.60 84.81 308.01
  Q 86.04 311.03 87.66 312.09
  Q 95.29 317.09 102.75 322.13
  Q 106.39 324.58 110.13 326.65
  C 116.96 330.41 123.36 335.03 127.45 341.62
  Q 127.72 342.06 128.23 342.08
  Q 128.82 342.10 129.08 342.63
  Q 129.67 343.83 130.59 344.90
  Q 133.05 347.76 135.83 350.49
  Q 136.23 350.88 136.78 350.99
  Q 137.53 351.13 138.00 351.75
  Q 138.59 352.52 139.39 353.09
  Q 144.04 356.43 148.53 359.25
  A 2.41 2.40 -44.3 0 0 151.05 359.28
  Q 152.57 358.36 153.81 357.01
  Q 155.46 355.21 157.13 353.45
  Q 158.27 352.25 159.09 350.76
  Q 159.91 349.28 160.73 347.83
  Q 161.11 347.13 161.28 346.33
  Q 161.47 345.47 161.94 344.70
  Q 162.19 344.31 162.63 344.22
  Q 162.79 344.19 162.86 344.04
  Q 162.99 343.77 162.71 343.87
  Q 162.53 343.92 162.40 343.81
  Q 162.10 343.53 162.40 343.25
  Q 163.61 342.12 164.45 340.51
  Q 165.24 339.00 166.10 337.63
  Q 168.60 333.62 171.03 329.54
  Q 173.45 325.47 176.50 321.83
  Q 179.89 317.78 183.72 313.59
  C 184.61 312.61 186.21 311.85 186.95 310.42
  Q 188.04 308.30 188.11 308.20
  Q 191.59 303.02 194.20 298.26
  C 195.46 295.96 195.97 293.00 196.71 290.39
  Q 196.74 290.25 196.87 290.18
  Q 197.00 290.11 197.15 290.19
  Q 197.30 290.27 197.34 290.11
  L 198.55 284.99
  Q 198.66 284.49 198.44 284.04
  Q 197.68 282.48 198.47 281.06
  Q 198.69 280.67 198.67 280.22
  Q 198.41 272.42 195.05 265.23
  A 1.76 1.71 37.0 0 1 194.91 264.34
  Q 195.22 261.74 193.40 260.04
  C 192.40 259.11 191.92 257.79 191.25 256.63
  Q 190.43 256.76 190.66 255.14"
/>
<path stroke="#d6524c" vector-effect="non-scaling-stroke" d="
  M 190.66 255.14
  L 194.18 254.83
  Q 194.78 254.78 194.55 254.22
  Q 193.12 250.63 191.01 247.69
  Q 190.58 247.08 189.84 246.96
  C 179.48 245.30 169.19 249.04 161.02 255.02
  C 159.38 256.22 158.24 257.07 157.97 259.33
  Q 157.29 265.14 155.35 272.35"
/>
<path stroke="#e8514b" vector-effect="non-scaling-stroke" d="
  M 190.66 255.14
  Q 185.59 256.61 177.94 259.42
  Q 165.83 263.88 155.35 272.35"
/>
<path stroke="#e8514b" vector-effect="non-scaling-stroke" d="
  M 102.23 264.29
  L 110.06 276.05
  A 2.11 2.11 0.0 0 0 111.30 276.93
  Q 119.39 279.04 127.46 281.72
  Q 133.88 283.85 140.28 282.39
  Q 140.79 282.27 140.97 281.79
  Q 141.12 281.39 141.05 281.05"
/>
</g>
<path fill="#15212f" d="
  M 200.77 85.87
  Q 206.02 89.94 210.50 92.52
  C 213.14 94.03 216.23 92.43 218.67 91.31
  C 220.25 90.59 221.60 88.13 221.99 86.76
  Q 224.91 76.32 227.86 64.26
  Q 228.43 61.90 229.60 59.82
  A 1.45 1.45 0.0 0 1 231.15 59.11
  Q 232.40 59.35 232.83 60.66
  Q 233.70 63.29 234.89 65.88
  Q 238.80 74.45 242.23 83.99
  Q 243.69 88.07 247.61 88.63
  Q 248.73 88.79 248.94 89.90
  L 248.99 90.20
  Q 249.21 91.36 248.03 91.29
  Q 242.80 90.95 238.01 92.48
  A 1.70 1.68 -38.0 0 1 236.63 92.32
  Q 235.74 91.78 236.12 90.89
  C 236.73 89.47 238.73 89.55 238.96 87.42
  Q 239.43 83.02 236.42 80.45
  Q 236.01 80.10 235.47 80.11
  C 232.86 80.15 227.05 80.32 225.89 82.76
  Q 224.23 86.27 224.15 89.66
  A 1.84 1.59 -11.3 0 0 226.62 91.06
  Q 226.82 90.98 226.98 91.11
  Q 230.00 93.56 226.08 93.66
  Q 218.97 93.84 211.86 96.54
  A 2.52 2.50 -36.9 0 1 209.47 96.21
  Q 204.71 92.71 200.06 89.69
  Q 198.76 88.84 196.52 86.86
  Q 196.07 86.47 196.48 86.04
  Q 197.26 85.22 198.20 84.60
  C 201.80 82.22 201.45 74.96 198.06 72.57
  Q 193.45 69.31 189.12 72.47
  A 1.11 1.09 61.2 0 0 188.75 73.77
  C 190.28 77.60 191.05 81.53 192.40 85.40
  Q 194.33 90.91 196.35 96.04
  A 2.84 2.82 85.5 0 0 198.36 97.77
  L 201.54 98.49
  Q 202.17 98.63 202.42 99.22
  Q 202.53 99.48 202.42 99.72
  Q 202.22 100.17 201.73 100.27
  Q 196.11 101.38 191.22 103.89
  Q 190.67 104.18 190.40 103.62
  Q 190.10 102.98 190.52 102.36
  C 191.57 100.82 192.77 99.53 192.22 97.48
  Q 189.24 86.26 184.97 76.64
  Q 183.95 74.33 181.31 74.38
  A 0.84 0.83 82.3 0 1 180.48 73.74
  Q 180.24 72.76 181.19 72.48
  Q 186.74 70.82 191.83 68.97
  Q 200.72 65.74 203.79 73.10
  Q 205.93 78.21 202.26 83.56
  C 201.82 84.21 201.16 84.42 200.68 84.99
  Q 200.27 85.48 200.77 85.87
  Z
  M 227.31 76.30
  A 1.54 1.54 0.0 0 0 228.93 78.18
  L 233.76 77.80
  A 1.54 1.54 0.0 0 0 235.07 75.69
  L 232.05 68.25
  A 1.54 1.54 0.0 0 0 229.12 68.48
  L 227.31 76.30
  Z"
/>
<path fill="#15212f" d="
  M 265.41 90.51
  C 267.01 90.18 268.37 89.45 268.88 87.79
  Q 272.04 77.53 274.17 65.80
  C 274.46 64.19 273.09 62.73 271.93 61.72
  Q 271.49 61.33 271.78 60.82
  Q 272.24 60.02 273.14 60.28
  C 275.17 60.87 277.00 61.60 279.17 61.77
  Q 286.26 62.35 289.99 64.08
  C 298.95 68.23 302.32 78.34 297.35 87.02
  Q 295.28 90.62 291.25 93.18
  Q 284.76 97.30 277.15 94.84
  Q 271.12 92.89 265.67 92.23
  Q 265.21 92.17 264.89 91.84
  Q 264.51 91.45 264.89 90.86
  A 0.84 0.84 0.0 0 1 265.41 90.51
  Z
  M 277.53 68.02
  L 273.35 87.03
  A 4.71 4.71 0.0 0 0 276.94 92.64
  L 279.63 93.23
  A 13.35 11.93 -77.6 0 0 294.15 82.76
  L 294.62 80.63
  A 13.35 11.93 -77.6 0 0 285.83 65.03
  L 283.14 64.44
  A 4.71 4.71 0.0 0 0 277.53 68.02
  Z"
/>
<path fill="#15212f" d="
  M 318.50 78.09
  Q 316.42 80.92 315.13 84.97
  C 314.67 86.44 314.62 87.80 316.03 88.78
  C 318.51 90.52 322.47 92.57 325.09 90.49
  Q 325.43 90.22 325.87 90.22
  Q 326.06 90.22 326.23 90.32
  Q 326.73 90.62 326.41 91.11
  Q 324.70 93.68 323.71 96.94
  Q 323.49 97.69 322.75 97.83
  A 0.68 0.68 0.0 0 1 321.95 97.11
  C 322.25 92.61 317.67 91.04 314.02 90.25
  Q 312.54 89.93 311.82 91.26
  Q 309.98 94.67 308.85 98.18
  C 308.26 100.00 308.69 101.58 310.40 102.56
  Q 313.54 104.35 316.22 105.52
  C 318.13 106.36 320.16 104.22 321.57 103.15
  Q 323.89 101.40 322.83 104.11
  C 321.82 106.66 320.26 110.51 316.60 108.47
  Q 311.60 105.69 306.97 103.54
  C 305.04 102.65 302.94 102.25 300.98 101.33
  Q 296.37 99.14 301.44 98.52
  Q 304.38 98.16 306.13 94.83
  Q 310.23 87.07 313.49 79.17
  C 314.66 76.33 315.32 74.27 311.77 72.50
  A 0.98 0.96 -79.5 0 1 311.24 71.72
  Q 311.15 70.81 311.81 70.62
  Q 313.03 70.27 313.90 70.77
  Q 322.17 75.52 331.32 78.66
  A 1.27 1.27 0.0 0 1 332.12 80.24
  Q 331.28 82.87 330.06 84.98
  Q 328.89 87.00 328.68 84.68
  Q 328.06 77.86 320.11 77.33
  Q 319.10 77.26 318.50 78.09
  Z"
/>
<path fill="#15212f" d="
  M 164.43 84.46
  L 161.17 84.60
  A 0.86 0.85 86.6 0 1 160.28 83.80
  Q 160.21 82.84 161.08 82.47
  Q 164.78 80.92 167.99 78.08
  Q 168.81 77.35 169.80 77.69
  Q 170.42 77.90 170.16 78.50
  C 169.22 80.70 168.34 81.80 169.87 84.15
  Q 173.79 90.17 177.46 96.53
  C 180.09 101.08 180.45 106.28 177.35 110.65
  C 175.20 113.68 172.43 115.67 168.74 116.36
  Q 159.88 118.02 154.60 109.65
  Q 149.03 100.81 147.53 98.20
  Q 146.02 95.57 142.21 95.79
  A 0.57 0.57 0.0 0 1 141.61 95.26
  Q 141.54 94.32 142.42 93.91
  Q 146.65 91.96 150.22 89.26
  A 0.69 0.69 0.0 0 1 151.15 89.34
  L 151.53 89.76
  Q 152.05 90.32 151.54 90.89
  Q 149.10 93.61 151.13 97.01
  Q 155.92 105.04 158.82 109.02
  C 160.47 111.29 163.46 113.39 166.31 113.86
  C 171.60 114.74 175.91 110.91 175.87 105.51
  Q 175.84 101.12 173.86 97.67
  Q 169.98 90.93 165.53 84.98
  A 1.31 1.30 -19.5 0 0 164.43 84.46
  Z"
/>
<path fill="#15212f" d="
  M 138.16 109.37
  C 134.88 105.77 129.33 107.43 126.50 110.46
  C 116.33 121.38 132.56 138.83 144.92 133.59
  C 150.29 131.31 150.53 126.07 149.66 121.05
  Q 149.56 120.48 150.01 120.12
  Q 150.36 119.83 150.81 119.90
  Q 151.30 119.97 151.51 120.42
  L 153.44 124.68
  Q 153.76 125.37 153.53 126.09
  Q 151.39 132.89 145.10 136.14
  Q 139.08 139.25 133.52 137.81
  C 122.08 134.85 117.04 122.40 122.68 112.29
  C 125.46 107.30 130.55 103.70 136.38 103.95
  Q 137.13 103.98 137.50 104.62
  L 139.64 108.24
  Q 139.92 108.71 139.63 109.17
  Q 139.45 109.47 139.13 109.60
  A 0.88 0.87 58.0 0 1 138.16 109.37
  Z"
/>
<path fill="#15212f" d="
  M 342.91 121.56
  L 344.17 124.54
  A 0.87 0.87 0.0 0 1 343.37 125.75
  Q 342.25 125.77 341.55 124.89
  Q 338.81 121.43 334.88 118.87
  A 1.88 1.87 -72.1 0 1 334.03 117.19
  Q 334.11 115.89 335.48 116.27
  Q 337.12 116.73 338.82 117.80
  Q 339.28 118.09 339.81 118.01
  Q 343.57 117.41 347.17 115.59
  Q 357.13 110.55 367.59 105.41
  Q 368.72 104.85 369.94 105.00
  A 1.46 1.46 0.0 0 1 371.07 107.11
  Q 368.43 112.28 366.21 117.49
  C 364.28 122.03 361.95 126.24 359.59 130.58
  Q 357.99 133.52 359.57 137.05
  C 359.95 137.89 359.94 139.14 359.25 139.82
  A 0.73 0.73 0.0 0 1 358.21 139.80
  Q 356.39 137.83 354.69 135.95
  C 353.41 134.53 351.66 134.10 350.30 132.86
  C 349.59 132.22 349.47 131.00 350.27 130.37
  Q 350.71 130.02 351.23 130.24
  Q 355.32 131.95 357.94 126.80
  C 358.83 125.04 359.06 123.40 357.45 121.91
  C 355.88 120.45 353.83 118.18 351.86 117.39
  C 349.65 116.50 344.91 119.30 343.21 120.52
  A 0.88 0.87 61.2 0 0 342.91 121.56
  Z
  M 355.60 114.36
  A 1.51 1.51 0.0 0 0 355.35 116.77
  L 358.81 119.95
  A 1.51 1.51 0.0 0 0 361.19 119.49
  L 364.72 112.16
  A 1.51 1.51 0.0 0 0 362.59 110.21
  L 355.60 114.36
  Z"
/>
<path fill="#15212f" d="
  M 378.61 153.08
  C 380.83 153.72 382.96 153.06 385.20 152.83
  Q 394.22 151.94 403.04 149.60
  Q 403.52 149.47 403.96 149.69
  Q 406.70 151.05 408.17 152.90
  Q 410.17 155.43 406.99 154.89
  Q 405.71 154.67 404.39 154.74
  Q 403.84 154.77 403.39 155.10
  Q 400.08 157.50 396.19 159.82
  C 392.29 162.15 388.79 164.86 385.01 167.22
  C 383.19 168.35 383.45 170.69 383.41 172.48
  A 0.82 0.82 0.0 0 1 382.70 173.27
  Q 382.01 173.36 381.37 173.20
  Q 380.76 173.05 380.44 172.42
  C 379.80 171.20 379.47 169.86 378.48 168.87
  Q 377.04 167.42 375.97 165.61
  Q 375.71 165.17 375.97 164.73
  Q 376.66 163.52 378.01 164.13
  C 379.61 164.84 381.15 165.34 382.79 164.38
  Q 390.45 159.90 396.16 155.57
  Q 397.44 154.59 396.04 153.81
  Q 395.74 153.65 395.39 153.69
  Q 383.09 155.10 371.34 156.76
  A 0.75 0.74 -75.4 0 1 370.65 155.57
  Q 377.83 146.13 383.23 135.15
  A 0.62 0.61 4.8 0 0 382.50 134.29
  Q 379.82 135.09 377.43 136.79
  Q 373.06 139.90 368.66 142.63
  A 2.53 2.52 -11.8 0 0 367.49 144.41
  C 367.30 145.75 367.27 147.38 366.46 148.52
  A 0.94 0.93 -38.8 0 1 364.84 148.35
  Q 363.36 144.89 360.84 142.14
  A 0.98 0.97 -44.3 0 1 360.86 140.81
  Q 361.51 140.13 362.43 140.42
  C 364.75 141.18 366.86 141.03 368.91 139.77
  Q 376.24 135.25 382.86 130.49
  Q 385.63 128.50 386.57 124.93
  Q 387.61 121.02 389.16 124.76
  C 389.90 126.53 391.46 130.22 390.49 131.97
  C 389.76 133.28 388.58 134.10 387.82 135.47
  Q 383.23 143.68 378.16 151.90
  Q 377.61 152.79 378.61 153.08
  Z"
/>
<path fill="#15212f" d="
  M 107.57 138.89
  C 105.67 137.90 104.12 138.76 102.69 139.95
  Q 102.27 140.30 101.76 140.12
  Q 101.11 139.90 100.87 139.23
  Q 100.72 138.79 100.99 138.40
  Q 102.41 136.42 103.82 134.51
  C 104.63 133.41 104.96 132.00 105.79 130.95
  Q 107.86 128.33 107.79 131.67
  Q 107.74 134.12 109.59 135.38
  Q 114.63 138.81 120.43 142.09
  C 127.63 146.16 130.83 153.59 126.41 161.38
  C 122.49 168.28 114.56 169.27 107.94 165.55
  Q 103.78 163.21 99.92 160.55
  C 97.55 158.92 93.55 156.17 90.86 158.48
  A 0.75 0.75 0.0 0 1 89.86 158.46
  Q 89.34 157.98 89.50 157.39
  Q 89.59 157.08 89.77 156.82
  Q 92.34 153.20 94.13 149.52
  A 1.44 1.43 -77.2 0 1 95.40 148.71
  Q 96.06 148.70 96.34 149.27
  C 97.18 151.01 95.33 152.29 97.36 154.16
  C 100.72 157.24 104.52 158.88 108.17 161.33
  C 112.49 164.22 120.02 166.19 123.85 161.32
  C 127.88 156.20 125.06 150.14 120.26 146.68
  Q 114.36 142.43 107.57 138.89
  Z"
/>
<path fill="#5d0101" d="
  M 87.17 336.52
  Q 86.97 334.86 86.19 334.32
  Q 85.52 333.86 86.33 333.76
  Q 86.83 333.69 87.00 334.09
  Q 87.18 334.53 87.64 334.69
  C 89.65 335.39 91.15 336.80 93.01 337.83
  Q 97.14 340.10 101.24 342.52
  Q 103.12 343.63 105.23 343.17
  Q 120.13 351.05 135.21 359.04
  C 139.37 361.25 143.09 363.94 147.36 366.00
  Q 149.75 367.16 152.36 366.94
  C 153.64 366.83 154.50 365.95 155.32 365.08
  Q 162.12 357.93 168.65 350.36
  Q 175.54 342.37 181.88 335.60
  Q 189.91 327.02 197.57 318.87
  C 205.46 310.48 210.04 301.06 213.45 289.39
  Q 214.11 287.12 214.41 284.78
  Q 214.73 282.29 215.23 279.85
  Q 215.78 277.17 214.93 274.24
  Q 214.35 272.26 214.11 270.42
  C 213.82 268.12 212.79 266.46 212.32 264.27
  Q 211.97 262.66 211.17 261.28
  C 210.35 259.85 210.22 258.08 209.08 256.95
  Q 208.67 256.55 208.64 255.98
  Q 208.58 254.88 207.91 254.09
  Q 206.23 252.13 204.58 250.20
  Q 203.75 249.21 203.06 248.07
  Q 201.50 245.47 198.81 243.91
  Q 197.09 242.91 195.52 241.40
  Q 192.72 238.68 189.25 237.13
  Q 180.58 233.24 171.19 234.36
  Q 163.93 233.88 157.09 237.74
  Q 147.45 241.36 142.84 249.34
  Q 138.93 256.10 135.78 259.50
  A 1.23 1.20 19.7 0 1 134.93 259.89
  Q 134.23 259.93 133.68 260.19
  Q 133.04 260.09 133.00 260.37
  Q 127.54 258.55 123.88 255.12
  Q 116.16 247.88 106.02 247.25
  Q 100.42 245.25 92.62 247.35
  Q 84.47 249.38 80.14 252.16
  Q 75.59 255.07 73.51 256.89
  Q 71.91 258.29 70.24 260.30
  Q 70.17 260.38 68.79 261.71
  Q 67.43 263.02 66.99 264.84
  A 2.11 2.07 73.9 0 1 66.50 265.75
  Q 65.30 267.04 65.08 268.88
  C 64.94 269.97 64.15 271.05 63.42 271.85
  Q 63.09 272.21 63.07 272.70
  Q 63.04 273.86 62.50 274.86
  Q 61.82 276.12 61.67 276.83
  Q 61.27 278.73 60.83 280.46
  Q 60.37 282.28 60.32 284.10
  Q 60.22 287.92 59.91 292.14
  C 59.77 294.09 60.33 295.73 60.88 297.48
  C 61.26 298.70 61.01 299.52 60.89 300.70
  Q 60.85 301.14 61.23 301.37
  Q 61.37 301.45 61.45 301.60
  C 61.81 302.27 61.54 303.23 61.73 304.01
  Q 61.88 304.58 62.49 305.35
  Q 63.87 307.08 64.33 309.06
  Q 62.97 308.94 62.57 307.63
  Q 62.39 307.06 61.89 307.40
  L 61.36 307.77
  Q 57.30 298.20 57.10 290.24
  Q 56.50 266.49 76.46 251.50
  Q 78.53 249.94 81.78 248.38
  Q 99.32 239.97 116.15 246.70
  Q 116.96 247.02 116.71 246.19
  Q 115.30 241.56 114.10 236.40
  Q 109.97 218.78 114.34 201.67
  Q 115.53 196.99 117.04 192.87
  Q 119.75 185.48 125.57 176.52
  Q 132.21 166.30 144.63 157.40
  Q 152.68 151.63 162.35 148.14
  Q 192.64 137.18 222.14 152.67
  C 226.23 154.82 231.77 159.65 235.34 163.69
  Q 239.35 168.25 242.93 172.71
  Q 245.12 175.44 248.77 177.01
  Q 249.26 177.23 249.79 177.10
  C 253.32 176.25 256.17 173.00 258.32 170.21
  Q 262.42 164.90 267.16 160.31
  C 272.17 155.47 277.99 151.69 284.85 149.04
  Q 311.87 138.61 338.18 149.01
  Q 347.56 152.72 355.54 158.58
  Q 370.93 169.90 379.34 187.61
  Q 388.75 207.43 385.97 229.30
  Q 384.06 244.35 376.93 258.50
  Q 376.61 259.14 377.33 259.14
  Q 378.92 259.14 380.35 258.18
  C 385.63 254.66 391.18 250.89 397.54 250.05
  Q 411.01 248.26 421.62 253.27
  Q 436.88 260.48 443.65 275.40
  C 450.83 291.25 448.45 307.89 438.05 321.84
  C 428.04 335.28 413.91 343.53 398.19 348.88
  C 389.49 351.83 381.21 355.04 372.79 358.04
  C 363.55 361.33 354.85 364.95 345.70 367.89
  C 344.08 368.41 342.18 368.57 340.72 367.49
  Q 338.45 365.83 337.22 364.01
  Q 325.19 346.19 311.70 326.97
  Q 311.26 326.34 310.66 326.81
  Q 290.29 342.41 269.27 359.06
  Q 263.52 363.62 257.81 367.80
  C 252.74 371.50 248.39 372.90 242.86 368.88
  Q 235.33 363.41 232.19 360.94
  Q 214.99 347.36 199.28 335.16
  Q 195.80 332.46 192.17 329.92
  Q 191.77 329.64 191.43 330.00
  Q 177.99 344.14 164.77 359.01
  Q 160.49 363.81 156.35 368.09
  C 154.31 370.20 151.72 370.96 148.94 369.55
  Q 147.30 368.72 145.85 367.96
  Q 120.51 354.72 94.00 340.74
  C 91.58 339.46 89.43 337.98 87.17 336.52
  Z
  M 180.61 148.66
  Q 165.90 149.38 152.01 157.76
  Q 145.56 161.66 141.74 165.19
  Q 139.17 167.57 136.97 170.92
  Q 134.69 174.37 131.61 177.38
  Q 130.23 178.73 129.11 180.33
  Q 127.96 181.97 126.84 183.67
  Q 126.60 184.04 126.59 184.47
  Q 126.57 185.01 126.27 185.46
  Q 123.89 189.05 123.10 193.36
  Q 122.59 196.16 121.38 198.73
  C 120.69 200.21 120.54 201.89 120.08 203.47
  Q 119.94 203.94 119.63 204.34
  Q 119.20 204.87 119.32 205.64
  Q 119.41 206.20 119.23 206.74
  Q 117.85 210.82 117.66 214.76
  Q 116.80 232.60 123.62 249.95
  Q 124.73 252.78 126.39 254.33
  C 128.22 256.06 132.30 259.34 134.77 257.04
  C 137.64 254.36 139.56 249.86 141.78 246.56
  C 145.21 241.46 151.23 237.64 156.78 235.04
  Q 175.58 227.64 192.75 236.30
  Q 217.25 248.65 217.54 277.50
  Q 217.61 285.32 213.19 296.83
  Q 209.91 304.89 207.42 308.65
  Q 202.05 316.77 195.90 324.40
  A 0.81 0.80 37.7 0 0 196.05 325.55
  Q 214.33 339.25 228.70 351.11
  Q 241.58 361.74 245.19 364.31
  Q 250.54 368.13 255.23 363.20
  Q 255.53 362.90 255.92 362.81
  Q 256.22 362.75 256.37 362.50
  Q 257.19 361.20 258.58 360.66
  Q 259.54 360.28 260.42 359.54
  Q 275.28 347.18 290.45 335.20
  Q 298.72 328.67 307.20 322.67
  A 1.44 1.43 55.4 0 0 307.56 320.69
  C 303.27 314.26 299.17 307.53 295.63 300.35
  Q 294.70 298.46 294.02 295.72
  Q 296.34 296.85 296.55 295.45
  Q 300.35 304.06 301.59 306.15
  Q 305.87 313.37 316.24 327.98
  C 316.87 328.86 317.40 330.08 318.09 331.04
  Q 327.40 343.94 335.97 357.40
  Q 338.27 361.03 341.36 364.43
  Q 341.71 364.80 342.21 364.91
  Q 344.82 365.47 346.83 364.70
  Q 357.27 360.71 368.43 356.34
  Q 377.94 352.61 387.22 349.50
  Q 399.05 345.54 408.54 341.30
  Q 419.59 336.37 423.48 333.10
  Q 427.92 329.38 432.03 325.10
  Q 436.14 320.82 439.78 314.23
  C 440.56 312.83 440.07 311.35 440.76 309.89
  Q 442.02 307.21 442.50 304.25
  Q 442.98 301.26 443.42 298.47
  Q 444.08 294.30 443.37 290.07
  C 443.10 288.42 442.18 287.15 441.66 285.58
  Q 441.13 284.00 440.17 282.51
  C 438.41 279.79 438.92 275.58 438.70 272.42
  C 438.60 271.11 437.94 269.58 437.11 268.61
  Q 434.66 265.74 431.67 262.58
  Q 428.49 259.20 420.19 255.10
  L 416.21 254.31
  Q 415.76 254.22 415.60 253.80
  Q 415.40 253.29 414.78 253.35
  C 412.16 253.57 410.53 252.05 407.83 252.31
  Q 399.36 251.62 391.93 254.86
  C 389.19 256.05 386.91 258.23 383.97 259.36
  Q 382.05 260.10 380.15 260.87
  Q 378.24 261.65 376.20 262.14
  L 374.76 261.56
  Q 372.45 259.02 371.86 257.78
  Q 368.82 251.41 365.48 245.20
  Q 364.06 242.57 363.16 241.83
  Q 360.52 239.67 358.18 237.81
  Q 353.22 233.60 346.43 231.80
  Q 334.53 227.06 322.03 231.55
  Q 319.27 232.54 318.10 234.05
  Q 316.34 236.33 314.09 238.08
  Q 314.00 238.15 313.89 238.11
  Q 313.76 238.07 313.64 238.10
  Q 313.35 238.18 313.11 238.40
  Q 307.10 244.09 303.51 248.31
  Q 301.34 250.86 299.91 253.33
  Q 299.02 254.86 297.61 256.24
  Q 296.34 257.48 295.49 259.61
  Q 295.00 260.81 294.21 261.97
  Q 293.43 263.10 292.79 264.28
  Q 293.25 259.51 294.68 256.50
  Q 297.14 251.34 297.96 247.08
  Q 301.67 240.37 309.68 235.20
  Q 326.93 224.07 346.77 229.58
  Q 365.65 235.33 372.32 254.06
  A 0.76 0.75 48.1 0 0 373.71 254.14
  Q 379.36 242.36 381.03 229.63
  Q 381.63 225.04 380.16 220.89
  Q 379.51 219.04 379.57 217.07
  Q 379.61 215.55 379.30 214.03
  Q 378.66 211.02 378.87 208.00
  C 378.97 206.58 378.38 205.36 378.02 204.02
  Q 377.65 202.68 376.89 201.31
  Q 375.62 198.99 374.67 196.51
  Q 374.62 196.38 374.53 196.30
  Q 374.41 196.20 374.26 196.21
  Q 373.93 196.23 373.87 195.91
  Q 373.22 192.47 371.35 190.40
  Q 369.91 188.80 369.05 187.09
  Q 368.83 186.66 368.47 186.33
  Q 365.89 183.94 363.28 180.13
  Q 360.84 176.57 359.65 173.43
  Q 359.55 173.15 359.35 172.92
  Q 359.07 172.58 358.81 172.21
  Q 358.46 171.71 358.36 171.14
  Q 357.96 168.97 357.44 166.82
  Q 356.97 164.87 355.39 163.61
  Q 346.12 156.23 334.99 152.12
  Q 328.09 149.57 322.76 149.56
  Q 315.47 147.67 308.25 148.31
  Q 300.72 148.98 293.45 151.33
  Q 291.71 151.42 289.27 152.38
  Q 281.92 155.26 275.89 159.60
  Q 272.27 162.20 266.72 168.05
  C 261.73 173.31 257.78 178.09 251.10 182.34
  L 248.67 181.89
  Q 244.43 180.24 241.18 176.82
  Q 236.61 172.01 232.17 167.08
  Q 222.51 156.37 209.17 152.13
  Q 195.41 146.83 180.61 148.66
  Z"
/>
<path fill="#ffa095" d="
  M 209.17 152.13
  Q 206.17 152.03 203.25 151.36
  Q 199.07 150.42 197.43 150.23
  Q 189.14 149.30 180.61 148.66
  Q 195.41 146.83 209.17 152.13
  Z"
/>
<path fill="#ffa095" d="
  M 322.76 149.56
  C 314.74 149.62 306.39 149.59 298.50 150.77
  Q 295.99 151.15 293.45 151.33
  Q 300.72 148.98 308.25 148.31
  Q 315.47 147.67 322.76 149.56
  Z"
/>
<path fill="#ac0402" d="
  M 180.61 148.66
  Q 189.14 149.30 197.43 150.23
  Q 199.07 150.42 203.25 151.36
  Q 206.17 152.03 209.17 152.13
  Q 222.51 156.37 232.17 167.08
  Q 236.61 172.01 241.18 176.82
  Q 244.43 180.24 248.67 181.89
  Q 246.53 182.56 248.65 183.95
  A 1.67 1.65 -49.3 0 0 250.66 183.79
  Q 251.45 183.08 251.10 182.34
  C 257.78 178.09 261.73 173.31 266.72 168.05
  Q 272.27 162.20 275.89 159.60
  Q 281.92 155.26 289.27 152.38
  Q 291.71 151.42 293.45 151.33
  Q 295.99 151.15 298.50 150.77
  C 306.39 149.59 314.74 149.62 322.76 149.56
  Q 328.09 149.57 334.99 152.12
  Q 346.12 156.23 355.39 163.61
  Q 356.97 164.87 357.44 166.82
  Q 357.96 168.97 358.36 171.14
  Q 358.46 171.71 358.81 172.21
  Q 359.07 172.58 359.35 172.92
  Q 359.55 173.15 359.65 173.43
  Q 360.84 176.57 363.28 180.13
  Q 365.89 183.94 368.47 186.33
  Q 368.83 186.66 369.05 187.09
  Q 369.91 188.80 371.35 190.40
  Q 373.22 192.47 373.87 195.91
  Q 373.93 196.23 374.26 196.21
  Q 374.41 196.20 374.53 196.30
  Q 374.62 196.38 374.67 196.51
  Q 375.62 198.99 376.89 201.31
  Q 377.65 202.68 378.02 204.02
  C 378.38 205.36 378.97 206.58 378.87 208.00
  Q 378.66 211.02 379.30 214.03
  Q 379.61 215.55 379.57 217.07
  Q 379.51 219.04 380.16 220.89
  Q 381.63 225.04 381.03 229.63
  Q 379.36 242.36 373.71 254.14
  A 0.76 0.75 48.1 0 1 372.32 254.06
  Q 365.65 235.33 346.77 229.58
  L 348.75 229.75
  Q 349.35 229.80 349.25 229.22
  Q 349.14 228.60 349.65 228.13
  Q 350.06 227.75 349.99 227.19
  L 349.37 222.01
  Q 349.34 221.77 349.14 221.63
  L 348.80 221.41
  Q 348.44 221.18 348.43 220.75
  Q 348.23 214.82 347.20 209.15
  C 346.91 207.59 347.26 206.13 346.89 204.51
  Q 346.27 201.77 345.77 199.01
  Q 345.60 198.08 344.43 194.64
  Q 343.68 192.43 343.82 189.97
  L 352.58 190.65
  A 0.63 0.62 86.8 0 0 353.24 189.91
  Q 352.08 183.49 349.35 176.94
  A 1.83 1.81 -2.0 0 0 348.21 175.89
  Q 342.73 174.14 337.13 173.15
  Q 331.62 172.17 323.75 172.96
  Q 312.22 174.13 299.81 179.48
  Q 299.04 179.06 297.48 179.54
  Q 297.01 179.68 296.53 179.53
  Q 295.15 179.07 293.64 178.89
  Q 292.31 178.74 291.09 179.56
  Q 288.60 181.23 287.02 183.29
  Q 284.42 186.69 281.22 189.46
  Q 280.92 189.72 279.77 191.03
  C 278.92 191.99 278.03 192.10 277.12 192.84
  Q 276.68 193.20 276.26 193.49
  Q 270.29 197.61 265.34 201.20
  Q 264.33 201.93 263.00 202.35
  Q 261.79 202.73 260.71 203.48
  Q 260.33 203.75 259.87 203.81
  L 255.52 204.42
  A 0.89 0.88 -84.2 0 0 254.83 204.99
  Q 254.63 205.58 254.14 205.30
  Q 253.79 205.11 253.41 205.23
  Q 253.17 205.30 253.20 205.48
  Q 253.31 205.97 252.81 206.06
  Q 252.19 206.18 251.61 206.48
  Q 250.98 206.80 251.68 206.84
  Q 251.85 206.85 252.00 206.92
  Q 252.64 207.20 252.25 207.77
  Q 251.90 208.27 252.28 208.82
  A 0.08 0.08 0.0 0 0 252.43 208.79
  Q 252.46 208.55 252.57 208.59
  Q 253.55 208.90 252.54 209.08
  Q 251.34 209.28 249.90 209.47
  Q 242.04 208.09 235.09 201.87
  Q 228.88 196.31 225.67 193.33
  C 222.47 190.35 218.85 187.07 215.00 185.13
  Q 206.46 180.84 196.26 179.27
  Q 195.70 179.18 195.77 179.74
  Q 196.03 181.78 197.12 183.67
  Q 196.47 183.69 196.03 184.00
  Q 195.78 184.18 195.80 183.87
  Q 195.81 183.51 194.72 183.61
  Q 194.50 183.64 194.28 183.67
  Q 192.82 183.87 191.36 183.95
  Q 191.28 183.96 191.23 184.02
  Q 191.19 184.06 191.19 184.11
  Q 191.23 184.42 190.94 184.29
  Q 189.57 183.63 188.95 184.86
  Q 188.77 185.21 188.39 185.29
  Q 188.17 185.34 187.99 185.48
  Q 187.43 185.93 187.66 185.25
  Q 187.72 185.06 187.58 184.93
  Q 187.23 184.57 186.80 184.84
  Q 186.23 185.19 185.59 185.04
  Q 185.01 184.90 184.42 184.97
  Q 181.99 185.25 181.00 185.64
  Q 178.76 186.53 176.22 186.65
  A 2.09 2.02 -61.0 0 0 175.23 186.95
  Q 173.26 188.14 171.15 188.63
  Q 169.13 189.11 167.49 190.08
  Q 163.54 192.42 160.37 194.99
  Q 159.28 195.88 159.31 197.42
  Q 159.32 197.81 158.96 197.67
  Q 158.07 197.31 157.58 198.23
  Q 157.22 198.92 157.12 199.06
  Q 156.34 200.19 155.84 201.44
  Q 155.67 201.88 155.28 202.14
  Q 153.64 203.24 153.91 205.29
  Q 153.96 205.69 153.61 205.89
  Q 152.52 206.53 152.59 207.79
  Q 152.71 209.80 153.17 211.82
  C 153.57 213.53 152.93 215.21 152.94 217.00
  Q 152.94 217.47 152.48 217.41
  Q 151.97 217.34 151.49 217.61
  Q 151.25 217.75 151.15 218.01
  Q 151.00 218.38 151.31 218.74
  A 0.60 0.59 61.5 0 0 151.92 218.93
  Q 152.41 218.78 152.89 218.84
  Q 153.31 218.89 153.36 219.31
  Q 153.60 221.51 153.09 223.53
  Q 152.36 226.38 152.32 229.11
  Q 152.30 230.70 152.90 232.62
  Q 153.25 233.75 154.22 234.32
  Q 155.32 234.96 156.78 235.04
  C 151.23 237.64 145.21 241.46 141.78 246.56
  C 139.56 249.86 137.64 254.36 134.77 257.04
  C 132.30 259.34 128.22 256.06 126.39 254.33
  Q 124.73 252.78 123.62 249.95
  Q 116.80 232.60 117.66 214.76
  Q 117.85 210.82 119.23 206.74
  Q 119.41 206.20 119.32 205.64
  Q 119.20 204.87 119.63 204.34
  Q 119.94 203.94 120.08 203.47
  C 120.54 201.89 120.69 200.21 121.38 198.73
  Q 122.59 196.16 123.10 193.36
  Q 123.89 189.05 126.27 185.46
  Q 126.57 185.01 126.59 184.47
  Q 126.60 184.04 126.84 183.67
  Q 127.96 181.97 129.11 180.33
  Q 130.23 178.73 131.61 177.38
  Q 134.69 174.37 136.97 170.92
  Q 139.17 167.57 141.74 165.19
  Q 145.56 161.66 152.01 157.76
  Q 165.90 149.38 180.61 148.66
  Z"
/>
<path fill="#15212f" d="
  M 418.2671 195.2083
  A 17.28 16.94 28.7 0 1 394.9750 201.7689
  A 17.28 16.94 28.7 0 1 387.9529 178.6117
  A 17.28 16.94 28.7 0 1 411.2450 172.0511
  A 17.28 16.94 28.7 0 1 418.2671 195.2083
  Z
  M 416.9894 181.0512
  A 15.09 12.40 -23.3 0 0 398.2252 175.6313
  A 15.09 12.40 -23.3 0 0 389.2706 192.9888
  A 15.09 12.40 -23.3 0 0 408.0348 198.4087
  A 15.09 12.40 -23.3 0 0 416.9894 181.0512
  Z"
/>
<path fill="#15212f" d="
  M 102.3042 204.4723
  A 17.30 16.95 65.5 0 1 79.7062 195.7591
  A 17.30 16.95 65.5 0 1 87.9558 172.9877
  A 17.30 16.95 65.5 0 1 110.5538 181.7009
  A 17.30 16.95 65.5 0 1 102.3042 204.4723
  Z
  M 109.8728 192.1150
  A 15.10 12.40 13.5 0 0 98.0847 176.5326
  A 15.10 12.40 13.5 0 0 80.5072 185.0650
  A 15.10 12.40 13.5 0 0 92.2953 200.6474
  A 15.10 12.40 13.5 0 0 109.8728 192.1150
  Z"
/>
<path fill="#ffa095" d="
  M 343.82 189.97
  Q 341.41 190.04 337.25 190.68
  C 317.96 193.67 299.02 198.30 282.63 208.37
  Q 281.45 209.10 282.10 207.88
  Q 287.72 197.46 290.69 185.83
  C 291.03 184.51 291.58 183.74 292.72 183.13
  Q 296.12 181.31 299.81 179.48
  Q 312.22 174.13 323.75 172.96
  Q 331.62 172.17 337.13 173.15
  Q 342.73 174.14 348.21 175.89
  A 1.83 1.81 -2.0 0 1 349.35 176.94
  Q 352.08 183.49 353.24 189.91
  A 0.63 0.62 86.8 0 1 352.58 190.65
  L 343.82 189.97
  Z"
/>
<path fill="#d00100" d="
  M 299.81 179.48
  Q 296.12 181.31 292.72 183.13
  C 291.58 183.74 291.03 184.51 290.69 185.83
  Q 287.72 197.46 282.10 207.88
  Q 281.45 209.10 282.63 208.37
  C 299.02 198.30 317.96 193.67 337.25 190.68
  Q 341.41 190.04 343.82 189.97
  Q 343.68 192.43 344.43 194.64
  Q 345.60 198.08 345.77 199.01
  Q 346.27 201.77 346.89 204.51
  C 347.26 206.13 346.91 207.59 347.20 209.15
  Q 348.23 214.82 348.43 220.75
  Q 348.44 221.18 348.80 221.41
  L 349.14 221.63
  Q 349.34 221.77 349.37 222.01
  L 349.99 227.19
  Q 350.06 227.75 349.65 228.13
  Q 349.14 228.60 349.25 229.22
  Q 349.35 229.80 348.75 229.75
  L 346.77 229.58
  Q 326.93 224.07 309.68 235.20
  Q 301.67 240.37 297.96 247.08
  Q 293.81 252.62 292.24 258.25
  C 288.91 270.14 290.10 281.73 293.29 293.47
  Q 293.66 295.02 293.04 296.07
  A 1.07 1.06 11.0 0 1 292.26 296.59
  Q 291.15 296.73 290.61 297.75
  Q 286.57 305.29 281.65 312.08
  A 1.20 1.19 10.1 0 1 280.98 312.54
  Q 280.51 312.66 280.24 313.05
  Q 277.00 317.66 273.05 322.90
  C 272.08 324.19 271.42 325.73 270.43 326.91
  C 268.65 329.04 267.52 331.37 266.10 333.72
  Q 265.04 335.46 263.32 337.55
  Q 261.08 340.27 258.97 343.29
  Q 258.73 343.64 258.90 344.03
  Q 259.02 344.28 258.85 344.49
  Q 256.27 347.71 253.42 349.79
  Q 252.61 350.38 251.63 350.60
  Q 249.75 351.02 249.89 350.38
  Q 249.98 349.93 249.56 349.78
  Q 247.31 348.98 245.26 347.02
  Q 241.14 343.11 237.43 338.72
  Q 235.05 335.90 232.56 333.36
  Q 228.87 329.59 227.82 327.80
  Q 223.58 320.55 218.97 314.18
  Q 218.63 313.71 218.68 313.14
  Q 218.71 312.67 218.27 312.43
  A 0.90 0.87 88.2 0 1 217.91 312.08
  Q 213.47 304.25 213.19 296.83
  Q 217.61 285.32 217.54 277.50
  Q 217.25 248.65 192.75 236.30
  Q 175.58 227.64 156.78 235.04
  Q 155.32 234.96 154.22 234.32
  Q 153.25 233.75 152.90 232.62
  Q 152.30 230.70 152.32 229.11
  Q 152.36 226.38 153.09 223.53
  Q 153.60 221.51 153.36 219.31
  Q 153.31 218.89 152.89 218.84
  Q 152.41 218.78 151.92 218.93
  A 0.60 0.59 61.5 0 1 151.31 218.74
  Q 151.00 218.38 151.15 218.01
  Q 151.25 217.75 151.49 217.61
  Q 151.97 217.34 152.48 217.41
  Q 152.94 217.47 152.94 217.00
  C 152.93 215.21 153.57 213.53 153.17 211.82
  Q 152.71 209.80 152.59 207.79
  Q 152.52 206.53 153.61 205.89
  Q 153.96 205.69 153.91 205.29
  Q 153.64 203.24 155.28 202.14
  Q 155.67 201.88 155.84 201.44
  Q 156.34 200.19 157.12 199.06
  Q 157.22 198.92 157.58 198.23
  Q 158.07 197.31 158.96 197.67
  Q 159.32 197.81 159.31 197.42
  Q 159.28 195.88 160.37 194.99
  Q 163.54 192.42 167.49 190.08
  Q 169.13 189.11 171.15 188.63
  Q 173.26 188.14 175.23 186.95
  A 2.09 2.02 -61.0 0 1 176.22 186.65
  Q 178.76 186.53 181.00 185.64
  Q 181.99 185.25 184.42 184.97
  Q 185.01 184.90 185.59 185.04
  Q 186.23 185.19 186.80 184.84
  Q 187.23 184.57 187.58 184.93
  Q 187.72 185.06 187.66 185.25
  Q 187.43 185.93 187.99 185.48
  Q 188.17 185.34 188.39 185.29
  Q 188.77 185.21 188.95 184.86
  Q 189.57 183.63 190.94 184.29
  Q 191.23 184.42 191.19 184.11
  Q 191.19 184.06 191.23 184.02
  Q 191.28 183.96 191.36 183.95
  Q 192.82 183.87 194.28 183.67
  Q 194.50 183.64 194.72 183.61
  Q 195.81 183.51 195.80 183.87
  Q 195.78 184.18 196.03 184.00
  Q 196.47 183.69 197.12 183.67
  C 200.36 191.15 202.45 196.31 206.12 202.17
  C 207.37 204.15 210.45 204.66 212.46 205.58
  C 216.41 207.40 220.47 209.19 224.23 211.31
  Q 230.48 214.85 237.99 217.93
  Q 246.49 221.40 255.13 220.42
  A 1.11 1.11 0.0 0 0 256.07 219.00
  Q 254.71 214.43 254.28 210.15
  Q 254.23 209.57 253.64 209.55
  L 249.90 209.47
  Q 251.34 209.28 252.54 209.08
  Q 253.55 208.90 252.57 208.59
  Q 252.46 208.55 252.43 208.79
  A 0.08 0.08 0.0 0 1 252.28 208.82
  Q 251.90 208.27 252.25 207.77
  Q 252.64 207.20 252.00 206.92
  Q 251.85 206.85 251.68 206.84
  Q 250.98 206.80 251.61 206.48
  Q 252.19 206.18 252.81 206.06
  Q 253.31 205.97 253.20 205.48
  Q 253.17 205.30 253.41 205.23
  Q 253.79 205.11 254.14 205.30
  Q 254.63 205.58 254.83 204.99
  A 0.89 0.88 -84.2 0 1 255.52 204.42
  L 259.87 203.81
  Q 260.33 203.75 260.71 203.48
  Q 261.79 202.73 263.00 202.35
  Q 264.33 201.93 265.34 201.20
  Q 270.29 197.61 276.26 193.49
  Q 276.68 193.20 277.12 192.84
  C 278.03 192.10 278.92 191.99 279.77 191.03
  Q 280.92 189.72 281.22 189.46
  Q 284.42 186.69 287.02 183.29
  Q 288.60 181.23 291.09 179.56
  Q 292.31 178.74 293.64 178.89
  Q 295.15 179.07 296.53 179.53
  Q 297.01 179.68 297.48 179.54
  Q 299.04 179.06 299.81 179.48
  Z"
/>
<path fill="#ffa095" d="
  M 249.90 209.47
  L 253.64 209.55
  Q 254.23 209.57 254.28 210.15
  Q 254.71 214.43 256.07 219.00
  A 1.11 1.11 0.0 0 1 255.13 220.42
  Q 246.49 221.40 237.99 217.93
  Q 230.48 214.85 224.23 211.31
  C 220.47 209.19 216.41 207.40 212.46 205.58
  C 210.45 204.66 207.37 204.15 206.12 202.17
  C 202.45 196.31 200.36 191.15 197.12 183.67
  Q 196.03 181.78 195.77 179.74
  Q 195.70 179.18 196.26 179.27
  Q 206.46 180.84 215.00 185.13
  C 218.85 187.07 222.47 190.35 225.67 193.33
  Q 228.88 196.31 235.09 201.87
  Q 242.04 208.09 249.90 209.47
  Z"
/>
<path fill="#ffa095" d="
  M 248.67 181.89
  L 251.10 182.34
  Q 251.45 183.08 250.66 183.79
  A 1.67 1.65 -49.3 0 1 248.65 183.95
  Q 246.53 182.56 248.67 181.89
  Z"
/>
<path fill="#15212f" d="
  M 408.20 225.37
  Q 403.66 228.89 400.19 232.46
  Q 397.89 234.82 398.23 237.97
  Q 398.37 239.21 397.12 239.23
  L 396.69 239.24
  A 0.89 0.89 0.0 0 1 395.78 238.44
  C 395.61 236.53 394.75 232.73 396.27 231.32
  Q 402.56 225.51 408.40 220.75
  A 0.52 0.51 -27.3 0 1 409.22 221.01
  C 412.08 231.31 428.01 227.70 424.24 216.89
  A 0.94 0.94 0.0 0 0 423.31 216.26
  Q 410.76 216.84 398.92 218.63
  A 1.80 1.78 8.5 0 0 397.57 219.62
  L 395.63 223.58
  A 0.76 0.76 0.0 0 1 394.64 223.94
  Q 393.77 223.56 393.82 222.58
  Q 394.12 217.19 392.94 212.02
  A 0.84 0.84 0.0 0 1 394.14 211.09
  C 395.75 211.93 396.08 214.47 398.49 214.36
  Q 410.22 213.87 420.00 212.21
  C 422.69 211.75 423.02 210.89 424.36 208.78
  Q 424.66 208.31 425.19 208.45
  Q 426.09 208.68 426.02 209.70
  Q 425.67 214.98 426.77 220.15
  C 427.71 224.55 425.60 230.46 420.48 231.19
  C 416.31 231.78 411.18 229.79 409.20 225.61
  Q 408.85 224.87 408.20 225.37
  Z"
/>
<path fill="#15212f" d="
  M 74.27 220.29
  C 74.29 223.02 76.36 224.11 79.00 224.41
  Q 89.61 225.60 98.50 225.94
  C 102.73 226.10 102.62 219.63 102.69 216.94
  C 102.76 214.32 99.56 213.29 97.88 211.66
  A 0.45 0.44 -18.6 0 1 98.26 210.90
  L 103.39 211.65
  A 2.53 2.52 9.4 0 1 105.51 214.61
  Q 103.96 222.93 103.80 233.35
  Q 103.80 233.80 103.46 234.15
  Q 103.05 234.59 102.46 234.43
  Q 101.91 234.29 101.69 233.76
  C 100.42 230.71 97.72 230.10 94.74 229.78
  Q 85.91 228.83 77.01 227.90
  C 74.99 227.69 73.42 229.32 72.50 230.90
  Q 72.21 231.39 71.74 231.08
  Q 70.67 230.35 71.02 229.08
  Q 72.20 224.93 71.96 220.63
  A 0.87 0.86 88.4 0 1 72.82 219.71
  L 73.71 219.72
  Q 74.27 219.72 74.27 220.29
  Z"
/>
<path fill="#ac0402" d="
  M 346.43 231.80
  L 358.18 237.81
  Q 360.52 239.67 363.16 241.83
  Q 364.06 242.57 365.48 245.20
  Q 368.82 251.41 371.86 257.78
  Q 372.45 259.02 374.76 261.56
  Q 374.12 262.72 375.08 263.03
  Q 375.59 263.19 375.94 262.79
  Q 376.17 262.53 376.20 262.14
  Q 378.24 261.65 380.15 260.87
  Q 382.05 260.10 383.97 259.36
  C 386.91 258.23 389.19 256.05 391.93 254.86
  Q 399.36 251.62 407.83 252.31
  L 414.77 254.48
  Q 415.28 254.64 415.82 254.58
  Q 417.22 254.41 418.17 255.31
  Q 418.50 255.63 418.96 255.67
  Q 419.89 255.77 420.19 255.10
  Q 428.49 259.20 431.67 262.58
  Q 434.66 265.74 437.11 268.61
  C 437.94 269.58 438.60 271.11 438.70 272.42
  C 438.92 275.58 438.41 279.79 440.17 282.51
  Q 441.13 284.00 441.66 285.58
  C 442.18 287.15 443.10 288.42 443.37 290.07
  Q 444.08 294.30 443.42 298.47
  Q 442.98 301.26 442.50 304.25
  Q 442.02 307.21 440.76 309.89
  C 440.07 311.35 440.56 312.83 439.78 314.23
  Q 436.14 320.82 432.03 325.10
  Q 427.92 329.38 423.48 333.10
  Q 419.59 336.37 408.54 341.30
  Q 399.05 345.54 387.22 349.50
  Q 377.94 352.61 368.43 356.34
  Q 357.27 360.71 346.83 364.70
  Q 344.82 365.47 342.21 364.91
  Q 341.71 364.80 341.36 364.43
  Q 338.27 361.03 335.97 357.40
  Q 327.40 343.94 318.09 331.04
  C 317.40 330.08 316.87 328.86 316.24 327.98
  Q 305.87 313.37 301.59 306.15
  Q 300.35 304.06 296.55 295.45
  Q 290.06 280.70 292.79 264.28
  Q 293.43 263.10 294.21 261.97
  Q 295.00 260.81 295.49 259.61
  Q 296.34 257.48 297.61 256.24
  Q 299.02 254.86 299.91 253.33
  Q 301.34 250.86 303.51 248.31
  Q 307.10 244.09 313.11 238.40
  Q 313.35 238.18 313.64 238.10
  Q 313.76 238.07 313.89 238.11
  Q 314.00 238.15 314.09 238.08
  Q 316.34 236.33 318.10 234.05
  Q 319.27 232.54 322.03 231.55
  Q 334.53 227.06 346.43 231.80
  Z
  M 428.35 283.57
  L 431.82 284.66
  A 0.55 0.55 0.0 0 0 432.53 284.18
  Q 432.72 281.34 432.59 277.90
  Q 432.52 276.23 431.29 275.47
  C 427.75 273.28 424.40 271.27 420.25 270.30
  Q 409.70 267.81 399.51 270.17
  C 398.41 270.43 397.73 271.39 397.27 272.37
  Q 396.80 272.24 396.56 271.77
  Q 396.28 271.26 395.76 271.51
  Q 395.45 271.65 395.16 271.51
  A 3.76 3.71 -44.7 0 0 391.82 271.52
  Q 389.67 272.60 387.73 274.14
  C 385.63 275.80 382.60 276.68 380.00 276.47
  C 378.14 276.32 375.73 276.06 374.33 277.23
  Q 373.50 277.92 373.19 278.48
  Q 372.22 277.80 370.83 277.17
  C 365.16 274.56 362.11 267.85 359.28 262.62
  C 356.42 257.33 351.53 253.49 346.25 250.81
  Q 345.75 250.56 345.61 251.09
  Q 345.38 251.93 345.62 252.87
  L 344.53 251.95
  A 0.02 0.02 0.0 0 1 344.54 251.91
  Q 344.82 251.93 344.90 251.71
  Q 345.02 251.40 344.69 251.39
  Q 344.32 251.39 344.14 251.68
  Q 343.84 252.20 343.84 251.60
  Q 343.84 251.28 343.53 251.21
  Q 340.74 250.53 338.04 250.57
  Q 337.70 250.58 337.94 250.34
  Q 338.03 250.24 337.97 250.07
  Q 337.91 249.89 337.73 249.90
  C 334.15 249.92 328.94 249.23 325.71 250.91
  C 322.89 252.37 319.86 252.71 317.54 254.91
  C 316.06 256.31 315.68 258.19 314.68 259.88
  Q 313.57 261.76 312.95 263.78
  Q 311.55 268.38 311.56 273.24
  Q 311.57 276.98 310.91 280.88
  Q 310.89 281.01 310.95 281.12
  Q 311.01 281.26 311.17 281.30
  Q 311.48 281.39 311.40 281.70
  Q 311.08 283.10 311.25 284.27
  Q 311.77 287.87 312.53 291.70
  Q 312.59 291.99 312.83 292.16
  Q 313.01 292.28 313.20 292.37
  A 1.54 1.54 0.0 0 1 313.96 293.16
  Q 314.81 295.11 316.08 296.92
  Q 317.38 298.77 318.50 300.66
  Q 322.28 307.03 325.64 313.40
  Q 328.57 318.98 330.92 327.04
  A 0.49 0.48 88.7 0 0 331.25 327.36
  Q 331.52 327.44 331.60 327.68
  Q 332.96 331.69 334.04 335.61
  Q 334.12 335.91 334.01 336.19
  Q 333.93 336.39 334.03 336.57
  Q 334.55 337.49 334.79 338.40
  Q 335.23 340.17 335.71 342.06
  Q 335.82 342.51 336.19 342.77
  Q 336.54 343.02 336.39 343.43
  A 0.77 0.76 -61.7 0 0 336.65 344.31
  Q 337.18 344.70 337.37 345.31
  Q 338.98 350.52 341.15 354.40
  Q 341.78 355.53 342.48 356.70
  C 343.59 358.53 345.97 358.66 347.80 358.09
  Q 351.62 356.89 354.27 354.44
  Q 355.27 353.52 356.48 352.96
  Q 358.88 351.87 360.73 349.49
  Q 361.25 348.83 362.08 348.67
  Q 362.83 348.53 363.27 347.91
  C 364.49 346.20 366.78 345.05 368.65 344.13
  Q 370.76 343.10 372.42 341.75
  Q 376.23 338.67 380.26 335.90
  Q 383.57 333.63 387.22 332.61
  C 388.98 332.12 390.52 331.13 392.28 330.60
  Q 403.06 327.31 411.86 320.21
  Q 412.45 319.73 412.79 319.04
  Q 413.19 318.25 413.81 317.63
  Q 414.20 317.25 414.33 316.73
  Q 414.66 315.45 415.76 314.34
  Q 416.79 313.31 417.49 312.07
  C 418.41 310.43 419.75 309.18 420.53 307.45
  Q 420.98 306.48 421.44 305.49
  Q 422.10 304.07 422.51 302.41
  C 423.19 299.67 424.29 296.96 424.57 294.15
  Q 424.76 292.25 425.11 290.50
  Q 425.14 290.36 425.24 290.24
  Q 425.36 290.10 425.52 290.01
  Q 425.97 289.76 426.01 289.25
  Q 426.36 284.18 428.35 283.57
  Z"
/>
<path fill="#d00100" d="
  M 346.43 231.80
  Q 353.22 233.60 358.18 237.81
  L 346.43 231.80
  Z"
/>
<path fill="#ac0402" d="
  M 105.23 343.17
  Q 95.81 338.83 87.21 333.27
  Q 84.55 331.56 81.65 329.00
  Q 79.03 326.68 76.36 324.39
  Q 71.38 320.10 64.33 309.06
  Q 63.87 307.08 62.49 305.35
  Q 61.88 304.58 61.73 304.01
  C 61.54 303.23 61.81 302.27 61.45 301.60
  Q 61.37 301.45 61.23 301.37
  Q 60.85 301.14 60.89 300.70
  C 61.01 299.52 61.26 298.70 60.88 297.48
  C 60.33 295.73 59.77 294.09 59.91 292.14
  Q 60.22 287.92 60.32 284.10
  Q 60.37 282.28 60.83 280.46
  Q 61.27 278.73 61.67 276.83
  Q 61.82 276.12 62.50 274.86
  Q 63.04 273.86 63.07 272.70
  Q 63.09 272.21 63.42 271.85
  C 64.15 271.05 64.94 269.97 65.08 268.88
  Q 65.30 267.04 66.50 265.75
  A 2.11 2.07 73.9 0 0 66.99 264.84
  Q 67.43 263.02 68.79 261.71
  Q 70.17 260.38 70.24 260.30
  Q 71.91 258.29 73.51 256.89
  Q 75.59 255.07 80.14 252.16
  Q 84.47 249.38 92.62 247.35
  Q 99.53 248.01 106.02 247.25
  Q 116.16 247.88 123.88 255.12
  Q 127.54 258.55 133.00 260.37
  Q 132.76 260.77 132.96 261.26
  Q 133.11 261.66 133.46 261.74
  Q 134.32 261.96 134.68 260.89
  A 0.37 0.37 0.0 0 0 134.30 260.40
  Q 134.12 260.42 133.68 260.19
  Q 134.23 259.93 134.93 259.89
  A 1.23 1.20 19.7 0 0 135.78 259.50
  Q 138.93 256.10 142.84 249.34
  Q 147.45 241.36 157.09 237.74
  L 171.19 234.36
  Q 180.58 233.24 189.25 237.13
  Q 192.72 238.68 195.52 241.40
  Q 197.09 242.91 198.81 243.91
  Q 201.50 245.47 203.06 248.07
  Q 203.75 249.21 204.58 250.20
  Q 206.23 252.13 207.91 254.09
  Q 208.58 254.88 208.64 255.98
  Q 208.67 256.55 209.08 256.95
  C 210.22 258.08 210.35 259.85 211.17 261.28
  Q 211.97 262.66 212.32 264.27
  C 212.79 266.46 213.82 268.12 214.11 270.42
  Q 214.35 272.26 214.93 274.24
  Q 215.78 277.17 215.23 279.85
  Q 214.73 282.29 214.41 284.78
  Q 214.11 287.12 213.45 289.39
  C 210.04 301.06 205.46 310.48 197.57 318.87
  Q 189.91 327.02 181.88 335.60
  Q 175.54 342.37 168.65 350.36
  Q 162.12 357.93 155.32 365.08
  C 154.50 365.95 153.64 366.83 152.36 366.94
  Q 149.75 367.16 147.36 366.00
  C 143.09 363.94 139.37 361.25 135.21 359.04
  Q 120.13 351.05 105.23 343.17
  Z
  M 155.35 272.35
  Q 155.50 269.96 154.81 270.29
  Q 154.65 270.37 154.67 270.54
  A 0.15 0.14 -7.8 0 1 154.54 270.70
  Q 152.34 270.92 151.11 272.52
  Q 150.01 273.98 148.32 275.00
  C 146.64 276.00 145.47 277.58 144.19 279.05
  Q 143.82 279.47 143.29 279.63
  Q 142.13 279.97 141.05 281.05
  L 139.35 276.42
  Q 139.16 275.90 138.61 275.87
  C 137.87 275.82 137.08 276.19 136.28 276.15
  C 129.80 275.88 125.19 272.35 120.11 268.89
  Q 112.40 263.65 102.23 264.29
  Q 101.86 262.26 98.67 264.03
  Q 98.52 264.11 98.38 264.02
  L 98.16 263.88
  Q 97.77 263.64 97.40 263.92
  Q 94.17 266.41 90.66 267.12
  Q 89.01 267.46 87.49 268.56
  C 85.57 269.95 83.05 270.99 81.89 273.13
  Q 81.66 273.56 82.04 273.26
  Q 82.10 273.22 82.14 273.27
  Q 82.31 273.46 82.21 273.71
  Q 81.06 276.78 79.37 279.27
  Q 79.09 279.67 79.07 280.16
  Q 79.05 280.53 78.91 280.87
  Q 78.74 281.27 78.31 281.32
  Q 78.05 281.35 77.90 281.59
  Q 77.71 281.92 78.09 281.96
  Q 78.36 281.99 78.32 282.25
  Q 77.49 287.50 78.85 292.96
  Q 80.22 298.47 82.76 303.49
  Q 83.83 305.60 84.81 308.01
  Q 86.04 311.03 87.66 312.09
  Q 95.29 317.09 102.75 322.13
  Q 106.39 324.58 110.13 326.65
  C 116.96 330.41 123.36 335.03 127.45 341.62
  Q 127.72 342.06 128.23 342.08
  Q 128.82 342.10 129.08 342.63
  Q 129.67 343.83 130.59 344.90
  Q 133.05 347.76 135.83 350.49
  Q 136.23 350.88 136.78 350.99
  Q 137.53 351.13 138.00 351.75
  Q 138.59 352.52 139.39 353.09
  Q 144.04 356.43 148.53 359.25
  A 2.41 2.40 -44.3 0 0 151.05 359.28
  Q 152.57 358.36 153.81 357.01
  Q 155.46 355.21 157.13 353.45
  Q 158.27 352.25 159.09 350.76
  Q 159.91 349.28 160.73 347.83
  Q 161.11 347.13 161.28 346.33
  Q 161.47 345.47 161.94 344.70
  Q 162.19 344.31 162.63 344.22
  Q 162.79 344.19 162.86 344.04
  Q 162.99 343.77 162.71 343.87
  Q 162.53 343.92 162.40 343.81
  Q 162.10 343.53 162.40 343.25
  Q 163.61 342.12 164.45 340.51
  Q 165.24 339.00 166.10 337.63
  Q 168.60 333.62 171.03 329.54
  Q 173.45 325.47 176.50 321.83
  Q 179.89 317.78 183.72 313.59
  C 184.61 312.61 186.21 311.85 186.95 310.42
  Q 188.04 308.30 188.11 308.20
  Q 191.59 303.02 194.20 298.26
  C 195.46 295.96 195.97 293.00 196.71 290.39
  Q 196.74 290.25 196.87 290.18
  Q 197.00 290.11 197.15 290.19
  Q 197.30 290.27 197.34 290.11
  L 198.55 284.99
  Q 198.66 284.49 198.44 284.04
  Q 197.68 282.48 198.47 281.06
  Q 198.69 280.67 198.67 280.22
  Q 198.41 272.42 195.05 265.23
  A 1.76 1.71 37.0 0 1 194.91 264.34
  Q 195.22 261.74 193.40 260.04
  C 192.40 259.11 191.92 257.79 191.25 256.63
  Q 190.43 256.76 190.66 255.14
  L 194.18 254.83
  Q 194.78 254.78 194.55 254.22
  Q 193.12 250.63 191.01 247.69
  Q 190.58 247.08 189.84 246.96
  C 179.48 245.30 169.19 249.04 161.02 255.02
  C 159.38 256.22 158.24 257.07 157.97 259.33
  Q 157.29 265.14 155.35 272.35
  Z"
/>
<path fill="#ffa095" d="
  M 171.19 234.36
  L 157.09 237.74
  Q 163.93 233.88 171.19 234.36
  Z"
/>
<path fill="#d00100" d="
  M 106.02 247.25
  Q 99.53 248.01 92.62 247.35
  Q 100.42 245.25 106.02 247.25
  Z"
/>
<path fill="#ffa095" d="
  M 190.66 255.14
  Q 185.59 256.61 177.94 259.42
  Q 165.83 263.88 155.35 272.35
  Q 157.29 265.14 157.97 259.33
  C 158.24 257.07 159.38 256.22 161.02 255.02
  C 169.19 249.04 179.48 245.30 189.84 246.96
  Q 190.58 247.08 191.01 247.69
  Q 193.12 250.63 194.55 254.22
  Q 194.78 254.78 194.18 254.83
  L 190.66 255.14
  Z"
/>
<path fill="#0b1011" d="
  M 292.79 264.28
  Q 290.06 280.70 296.55 295.45
  Q 296.34 296.85 294.02 295.72
  L 293.29 293.47
  C 290.10 281.73 288.91 270.14 292.24 258.25
  Q 293.81 252.62 297.96 247.08
  Q 297.14 251.34 294.68 256.50
  Q 293.25 259.51 292.79 264.28
  Z"
/>
<path fill="#d00100" d="
  M 345.62 252.87
  L 347.54 265.29
  A 1.30 1.28 17.9 0 0 347.90 265.98
  Q 356.16 273.98 362.32 279.72
  Q 366.55 283.66 371.93 284.39
  A 0.52 0.51 -82.3 0 0 372.51 283.94
  L 373.19 278.48
  Q 373.50 277.92 374.33 277.23
  C 375.73 276.06 378.14 276.32 380.00 276.47
  C 382.60 276.68 385.63 275.80 387.73 274.14
  Q 389.67 272.60 391.82 271.52
  A 3.76 3.71 -44.7 0 1 395.16 271.51
  Q 395.45 271.65 395.76 271.51
  Q 396.28 271.26 396.56 271.77
  Q 396.80 272.24 397.27 272.37
  L 389.38 282.04
  Q 389.07 282.43 389.56 282.34
  Q 405.72 279.36 421.87 282.19
  Q 423.42 282.46 425.12 282.71
  Q 427.02 282.99 428.35 283.57
  Q 426.36 284.18 426.01 289.25
  Q 425.97 289.76 425.52 290.01
  Q 425.36 290.10 425.24 290.24
  Q 425.14 290.36 425.11 290.50
  Q 424.76 292.25 424.57 294.15
  C 424.29 296.96 423.19 299.67 422.51 302.41
  Q 422.10 304.07 421.44 305.49
  Q 420.98 306.48 420.53 307.45
  C 419.75 309.18 418.41 310.43 417.49 312.07
  Q 416.79 313.31 415.76 314.34
  Q 414.66 315.45 414.33 316.73
  Q 414.20 317.25 413.81 317.63
  Q 413.19 318.25 412.79 319.04
  Q 412.45 319.73 411.86 320.21
  Q 403.06 327.31 392.28 330.60
  C 390.52 331.13 388.98 332.12 387.22 332.61
  Q 383.57 333.63 380.26 335.90
  Q 376.23 338.67 372.42 341.75
  Q 370.76 343.10 368.65 344.13
  C 366.78 345.05 364.49 346.20 363.27 347.91
  Q 362.83 348.53 362.08 348.67
  Q 361.25 348.83 360.73 349.49
  Q 358.88 351.87 356.48 352.96
  Q 355.27 353.52 354.27 354.44
  Q 351.62 356.89 347.80 358.09
  C 345.97 358.66 343.59 358.53 342.48 356.70
  Q 341.78 355.53 341.15 354.40
  Q 338.98 350.52 337.37 345.31
  Q 337.18 344.70 336.65 344.31
  A 0.77 0.76 -61.7 0 1 336.39 343.43
  Q 336.54 343.02 336.19 342.77
  Q 335.82 342.51 335.71 342.06
  Q 335.23 340.17 334.79 338.40
  Q 334.55 337.49 334.03 336.57
  Q 333.93 336.39 334.01 336.19
  Q 334.12 335.91 334.04 335.61
  Q 332.96 331.69 331.60 327.68
  Q 331.52 327.44 331.25 327.36
  A 0.49 0.48 88.7 0 1 330.92 327.04
  Q 328.57 318.98 325.64 313.40
  Q 322.28 307.03 318.50 300.66
  Q 317.38 298.77 316.08 296.92
  Q 314.81 295.11 313.96 293.16
  A 1.54 1.54 0.0 0 0 313.20 292.37
  Q 313.01 292.28 312.83 292.16
  Q 312.59 291.99 312.53 291.70
  Q 311.77 287.87 311.25 284.27
  Q 311.08 283.10 311.40 281.70
  Q 311.48 281.39 311.17 281.30
  Q 311.01 281.26 310.95 281.12
  Q 310.89 281.01 310.91 280.88
  Q 311.57 276.98 311.56 273.24
  Q 311.55 268.38 312.95 263.78
  Q 313.57 261.76 314.68 259.88
  C 315.68 258.19 316.06 256.31 317.54 254.91
  C 319.86 252.71 322.89 252.37 325.71 250.91
  C 328.94 249.23 334.15 249.92 337.73 249.90
  Q 337.91 249.89 337.97 250.07
  Q 338.03 250.24 337.94 250.34
  Q 337.70 250.58 338.04 250.57
  Q 340.74 250.53 343.53 251.21
  Q 343.84 251.28 343.84 251.60
  Q 343.84 252.20 344.14 251.68
  Q 344.32 251.39 344.69 251.39
  Q 345.02 251.40 344.90 251.71
  Q 344.82 251.93 344.54 251.91
  A 0.02 0.02 0.0 0 0 344.53 251.95
  L 345.62 252.87
  Z"
/>
<path fill="#ffa095" d="
  M 373.19 278.48
  L 372.51 283.94
  A 0.52 0.51 -82.3 0 1 371.93 284.39
  Q 366.55 283.66 362.32 279.72
  Q 356.16 273.98 347.90 265.98
  A 1.30 1.28 17.9 0 1 347.54 265.29
  L 345.62 252.87
  Q 345.38 251.93 345.61 251.09
  Q 345.75 250.56 346.25 250.81
  C 351.53 253.49 356.42 257.33 359.28 262.62
  C 362.11 267.85 365.16 274.56 370.83 277.17
  Q 372.22 277.80 373.19 278.48
  Z"
/>
<path fill="#d00100" d="
  M 407.83 252.31
  C 410.53 252.05 412.16 253.57 414.78 253.35
  Q 415.40 253.29 415.60 253.80
  Q 415.76 254.22 416.21 254.31
  L 420.19 255.10
  Q 419.89 255.77 418.96 255.67
  Q 418.50 255.63 418.17 255.31
  Q 417.22 254.41 415.82 254.58
  Q 415.28 254.64 414.77 254.48
  L 407.83 252.31
  Z"
/>
<path fill="#d00100" d="
  M 190.66 255.14
  Q 190.43 256.76 191.25 256.63
  C 191.92 257.79 192.40 259.11 193.40 260.04
  Q 195.22 261.74 194.91 264.34
  A 1.76 1.71 37.0 0 0 195.05 265.23
  Q 198.41 272.42 198.67 280.22
  Q 198.69 280.67 198.47 281.06
  Q 197.68 282.48 198.44 284.04
  Q 198.66 284.49 198.55 284.99
  L 197.34 290.11
  Q 197.30 290.27 197.15 290.19
  Q 197.00 290.11 196.87 290.18
  Q 196.74 290.25 196.71 290.39
  C 195.97 293.00 195.46 295.96 194.20 298.26
  Q 191.59 303.02 188.11 308.20
  Q 188.04 308.30 186.95 310.42
  C 186.21 311.85 184.61 312.61 183.72 313.59
  Q 179.89 317.78 176.50 321.83
  Q 173.45 325.47 171.03 329.54
  Q 168.60 333.62 166.10 337.63
  Q 165.24 339.00 164.45 340.51
  Q 163.61 342.12 162.40 343.25
  Q 162.10 343.53 162.40 343.81
  Q 162.53 343.92 162.71 343.87
  Q 162.99 343.77 162.86 344.04
  Q 162.79 344.19 162.63 344.22
  Q 162.19 344.31 161.94 344.70
  Q 161.47 345.47 161.28 346.33
  Q 161.11 347.13 160.73 347.83
  Q 159.91 349.28 159.09 350.76
  Q 158.27 352.25 157.13 353.45
  Q 155.46 355.21 153.81 357.01
  Q 152.57 358.36 151.05 359.28
  A 2.41 2.40 -44.3 0 1 148.53 359.25
  Q 144.04 356.43 139.39 353.09
  Q 138.59 352.52 138.00 351.75
  Q 137.53 351.13 136.78 350.99
  Q 136.23 350.88 135.83 350.49
  Q 133.05 347.76 130.59 344.90
  Q 129.67 343.83 129.08 342.63
  Q 128.82 342.10 128.23 342.08
  Q 127.72 342.06 127.45 341.62
  C 123.36 335.03 116.96 330.41 110.13 326.65
  Q 106.39 324.58 102.75 322.13
  Q 95.29 317.09 87.66 312.09
  Q 86.04 311.03 84.81 308.01
  Q 83.83 305.60 82.76 303.49
  Q 80.22 298.47 78.85 292.96
  Q 77.49 287.50 78.32 282.25
  Q 78.36 281.99 78.09 281.96
  Q 77.71 281.92 77.90 281.59
  Q 78.05 281.35 78.31 281.32
  Q 78.74 281.27 78.91 280.87
  Q 79.05 280.53 79.07 280.16
  Q 79.09 279.67 79.37 279.27
  Q 81.06 276.78 82.21 273.71
  Q 82.31 273.46 82.14 273.27
  Q 82.10 273.22 82.04 273.26
  Q 81.66 273.56 81.89 273.13
  C 83.05 270.99 85.57 269.95 87.49 268.56
  Q 89.01 267.46 90.66 267.12
  Q 94.17 266.41 97.40 263.92
  Q 97.77 263.64 98.16 263.88
  L 98.38 264.02
  Q 98.52 264.11 98.67 264.03
  Q 101.86 262.26 102.23 264.29
  L 110.06 276.05
  A 2.11 2.11 0.0 0 0 111.30 276.93
  Q 119.39 279.04 127.46 281.72
  Q 133.88 283.85 140.28 282.39
  Q 140.79 282.27 140.97 281.79
  Q 141.12 281.39 141.05 281.05
  Q 142.13 279.97 143.29 279.63
  Q 143.82 279.47 144.19 279.05
  C 145.47 277.58 146.64 276.00 148.32 275.00
  Q 150.01 273.98 151.11 272.52
  Q 152.34 270.92 154.54 270.70
  A 0.15 0.14 -7.8 0 0 154.67 270.54
  Q 154.65 270.37 154.81 270.29
  Q 155.50 269.96 155.35 272.35
  Q 165.83 263.88 177.94 259.42
  Q 185.59 256.61 190.66 255.14
  Z"
/>
<path fill="#d00100" d="
  M 133.00 260.37
  Q 133.04 260.09 133.68 260.19
  Q 134.12 260.42 134.30 260.40
  A 0.37 0.37 0.0 0 1 134.68 260.89
  Q 134.32 261.96 133.46 261.74
  Q 133.11 261.66 132.96 261.26
  Q 132.76 260.77 133.00 260.37
  Z"
/>
<path fill="#ffa095" d="
  M 102.23 264.29
  Q 112.40 263.65 120.11 268.89
  C 125.19 272.35 129.80 275.88 136.28 276.15
  C 137.08 276.19 137.87 275.82 138.61 275.87
  Q 139.16 275.90 139.35 276.42
  L 141.05 281.05
  Q 141.12 281.39 140.97 281.79
  Q 140.79 282.27 140.28 282.39
  Q 133.88 283.85 127.46 281.72
  Q 119.39 279.04 111.30 276.93
  A 2.11 2.11 0.0 0 1 110.06 276.05
  L 102.23 264.29
  Z"
/>
<path fill="#ffa095" d="
  M 428.35 283.57
  Q 427.02 282.99 425.12 282.71
  Q 423.42 282.46 421.87 282.19
  Q 405.72 279.36 389.56 282.34
  Q 389.07 282.43 389.38 282.04
  L 397.27 272.37
  C 397.73 271.39 398.41 270.43 399.51 270.17
  Q 409.70 267.81 420.25 270.30
  C 424.40 271.27 427.75 273.28 431.29 275.47
  Q 432.52 276.23 432.59 277.90
  Q 432.72 281.34 432.53 284.18
  A 0.55 0.55 0.0 0 1 431.82 284.66
  L 428.35 283.57
  Z"
/>
<path fill="#ac0402" d="
  M 293.29 293.47
  L 294.02 295.72
  Q 294.70 298.46 295.63 300.35
  C 299.17 307.53 303.27 314.26 307.56 320.69
  A 1.44 1.43 55.4 0 1 307.20 322.67
  Q 298.72 328.67 290.45 335.20
  Q 275.28 347.18 260.42 359.54
  Q 259.54 360.28 258.58 360.66
  Q 257.19 361.20 256.37 362.50
  Q 256.22 362.75 255.92 362.81
  Q 255.53 362.90 255.23 363.20
  Q 250.54 368.13 245.19 364.31
  Q 241.58 361.74 228.70 351.11
  Q 214.33 339.25 196.05 325.55
  A 0.81 0.80 37.7 0 1 195.90 324.40
  Q 202.05 316.77 207.42 308.65
  Q 209.91 304.89 213.19 296.83
  Q 213.47 304.25 217.91 312.08
  A 0.90 0.87 88.2 0 0 218.27 312.43
  Q 218.71 312.67 218.68 313.14
  Q 218.63 313.71 218.97 314.18
  Q 223.58 320.55 227.82 327.80
  Q 228.87 329.59 232.56 333.36
  Q 235.05 335.90 237.43 338.72
  Q 241.14 343.11 245.26 347.02
  Q 247.31 348.98 249.56 349.78
  Q 249.98 349.93 249.89 350.38
  Q 249.75 351.02 251.63 350.60
  Q 252.61 350.38 253.42 349.79
  Q 256.27 347.71 258.85 344.49
  Q 259.02 344.28 258.90 344.03
  Q 258.73 343.64 258.97 343.29
  Q 261.08 340.27 263.32 337.55
  Q 265.04 335.46 266.10 333.72
  C 267.52 331.37 268.65 329.04 270.43 326.91
  C 271.42 325.73 272.08 324.19 273.05 322.90
  Q 277.00 317.66 280.24 313.05
  Q 280.51 312.66 280.98 312.54
  A 1.20 1.19 10.1 0 0 281.65 312.08
  Q 286.57 305.29 290.61 297.75
  Q 291.15 296.73 292.26 296.59
  A 1.07 1.06 11.0 0 0 293.04 296.07
  Q 293.66 295.02 293.29 293.47
  Z"
/>
<path fill="#0b1011" d="
  M 64.33 309.06
  Q 71.38 320.10 76.36 324.39
  Q 79.03 326.68 81.65 329.00
  Q 84.55 331.56 87.21 333.27
  Q 95.81 338.83 105.23 343.17
  Q 103.12 343.63 101.24 342.52
  Q 97.14 340.10 93.01 337.83
  C 91.15 336.80 89.65 335.39 87.64 334.69
  Q 87.18 334.53 87.00 334.09
  Q 86.83 333.69 86.33 333.76
  Q 85.52 333.86 86.19 334.32
  Q 86.97 334.86 87.17 336.52
  Q 81.29 332.85 76.39 328.05
  Q 76.87 327.69 77.36 327.90
  Q 78.00 328.17 78.53 328.95
  Q 78.63 329.09 78.60 329.24
  Q 78.44 329.93 79.00 329.50
  Q 79.21 329.34 79.51 329.53
  Q 79.74 329.68 79.54 329.87
  Q 79.42 329.98 79.46 330.11
  Q 79.55 330.38 79.82 330.31
  Q 81.10 330.01 82.08 331.43
  Q 82.28 331.72 82.53 331.47
  L 82.73 331.27
  Q 82.88 331.12 82.72 330.97
  Q 79.66 328.14 76.31 325.47
  Q 73.89 323.54 72.25 320.97
  Q 72.14 320.80 71.95 320.85
  Q 71.77 320.90 71.75 321.05
  Q 71.69 321.65 71.54 321.07
  Q 70.90 318.61 68.21 317.48
  Q 68.01 317.39 68.20 317.28
  Q 68.33 317.21 68.34 317.02
  Q 68.34 316.90 68.25 316.81
  Q 67.42 316.04 66.12 315.97
  L 61.36 307.77
  L 61.89 307.40
  Q 62.39 307.06 62.57 307.63
  Q 62.97 308.94 64.33 309.06
  Z"
/>
<path fill="#5d0101" d="
  M 76.39 328.05
  Q 70.62 322.64 66.12 315.97
  Q 67.42 316.04 68.25 316.81
  Q 68.34 316.90 68.34 317.02
  Q 68.33 317.21 68.20 317.28
  Q 68.01 317.39 68.21 317.48
  Q 70.90 318.61 71.54 321.07
  Q 71.69 321.65 71.75 321.05
  Q 71.77 320.90 71.95 320.85
  Q 72.14 320.80 72.25 320.97
  Q 73.89 323.54 76.31 325.47
  Q 79.66 328.14 82.72 330.97
  Q 82.88 331.12 82.73 331.27
  L 82.53 331.47
  Q 82.28 331.72 82.08 331.43
  Q 81.10 330.01 79.82 330.31
  Q 79.55 330.38 79.46 330.11
  Q 79.42 329.98 79.54 329.87
  Q 79.74 329.68 79.51 329.53
  Q 79.21 329.34 79.00 329.50
  Q 78.44 329.93 78.60 329.24
  Q 78.63 329.09 78.53 328.95
  Q 78.00 328.17 77.36 327.90
  Q 76.87 327.69 76.39 328.05
  Z"
/>
<path fill="#0b1011" d="
  M 264.06 408.98
  A 1.08 1.07 45.7 0 0 264.05 410.36
  Q 266.13 412.92 268.53 415.13
  C 271.85 418.17 271.79 426.77 265.99 427.28
  C 260.48 427.76 259.19 423.94 259.58 419.36
  Q 259.65 418.58 260.43 418.60
  L 263.33 418.66
  A 0.69 0.68 0.0 0 1 264.00 419.32
  L 264.08 422.16
  A 1.06 1.06 0.0 0 0 264.97 423.17
  L 265.31 423.23
  A 0.54 0.52 -75.4 0 0 265.89 422.88
  C 267.00 419.61 264.82 417.47 262.47 415.64
  Q 258.74 412.74 259.78 408.14
  Q 260.67 404.21 264.80 404.24
  Q 270.65 404.29 270.49 410.51
  Q 270.48 411.00 269.99 410.99
  L 266.52 410.92
  Q 266.09 410.91 266.06 410.48
  C 266.01 409.81 266.03 409.11 265.46 408.63
  Q 264.82 408.09 264.06 408.98
  Z"
/>
<path fill="#15212f" d="
  M 292.90 425.86
  C 292.44 426.45 291.79 426.95 291.06 427.13
  C 286.90 428.17 285.09 424.99 284.93 421.35
  Q 284.50 411.23 284.97 408.98
  Q 286.15 403.26 292.25 404.42
  C 295.42 405.03 296.09 408.19 296.10 411.13
  Q 296.11 411.99 295.24 411.99
  L 292.44 411.98
  Q 291.48 411.97 291.66 411.02
  Q 291.85 409.97 291.49 409.00
  Q 291.27 408.40 290.63 408.46
  Q 289.60 408.57 289.54 409.62
  Q 289.23 415.67 289.54 422.17
  A 1.05 1.05 0.0 0 0 290.67 423.17
  Q 291.54 423.09 291.65 422.09
  Q 291.86 420.21 291.70 418.64
  Q 291.65 418.17 291.36 417.80
  Q 290.31 416.45 290.84 414.45
  A 0.73 0.73 0.0 0 1 291.53 413.91
  L 295.44 413.84
  A 0.59 0.59 0.0 0 1 296.04 414.44
  L 296.02 426.50
  Q 296.02 427.10 295.42 427.16
  Q 294.14 427.27 293.78 426.02
  Q 293.50 425.08 292.90 425.86
  Z"
/>
<path fill="#0b1011" d="
  M 174.58 408.85
  L 173.26 408.83
  Q 172.70 408.82 172.70 408.26
  L 172.70 405.01
  Q 172.70 404.46 173.24 404.46
  L 181.98 404.47
  Q 182.74 404.47 182.74 405.23
  L 182.73 408.03
  Q 182.72 409.03 181.74 408.85
  Q 181.00 408.72 180.32 408.88
  Q 179.81 409.00 179.81 409.52
  L 179.87 426.64
  Q 179.87 427.15 179.36 427.15
  L 175.73 427.14
  Q 175.31 427.14 175.31 426.72
  L 175.30 409.58
  Q 175.30 408.86 174.58 408.85
  Z"
/>
<path fill="#0b1011" d="
  M 188.50 417.92
  L 188.49 422.29
  A 0.49 0.49 0.0 0 0 188.99 422.78
  L 192.70 422.75
  A 0.49 0.49 0.0 0 1 193.19 423.23
  L 193.20 426.59
  A 0.49 0.49 0.0 0 1 192.71 427.08
  L 184.42 427.15
  A 0.49 0.49 0.0 0 1 183.93 426.66
  L 183.97 404.95
  A 0.49 0.49 0.0 0 1 184.46 404.46
  L 192.48 404.48
  A 0.49 0.49 0.0 0 1 192.97 404.97
  L 192.99 408.36
  A 0.49 0.49 0.0 0 1 192.50 408.85
  L 189.00 408.86
  A 0.49 0.49 0.0 0 0 188.51 409.35
  L 188.49 412.80
  A 0.49 0.49 0.0 0 0 188.98 413.29
  L 192.26 413.29
  A 0.49 0.49 0.0 0 1 192.75 413.78
  L 192.77 416.91
  A 0.49 0.49 0.0 0 1 192.28 417.40
  L 188.99 417.43
  A 0.49 0.49 0.0 0 0 188.50 417.92
  Z"
/>
<path fill="#0b1011" d="
  M 200.00 423.29
  L 203.59 423.26
  A 0.52 0.52 0.0 0 1 204.11 423.79
  L 204.07 426.61
  A 0.52 0.52 0.0 0 1 203.55 427.12
  L 195.42 427.11
  A 0.52 0.52 0.0 0 1 194.90 426.59
  L 194.87 405.00
  A 0.52 0.52 0.0 0 1 195.39 404.48
  L 198.97 404.45
  A 0.52 0.52 0.0 0 1 199.49 404.97
  L 199.48 422.77
  A 0.52 0.52 0.0 0 0 200.00 423.29
  Z"
/>
<path fill="#0b1011" d="
  M 209.76 409.24
  L 209.76 412.91
  A 0.40 0.40 0.0 0 0 210.16 413.31
  L 213.79 413.27
  A 0.40 0.40 0.0 0 1 214.19 413.67
  L 214.22 417.00
  A 0.40 0.40 0.0 0 1 213.81 417.40
  L 210.16 417.33
  A 0.40 0.40 0.0 0 0 209.75 417.73
  L 209.77 422.38
  A 0.40 0.40 0.0 0 0 210.17 422.78
  L 214.32 422.73
  A 0.40 0.40 0.0 0 1 214.72 423.13
  L 214.75 426.74
  A 0.40 0.40 0.0 0 1 214.35 427.14
  L 205.69 427.12
  A 0.40 0.40 0.0 0 1 205.29 426.72
  L 205.28 404.87
  A 0.40 0.40 0.0 0 1 205.68 404.47
  L 214.02 404.47
  A 0.40 0.40 0.0 0 1 214.42 404.87
  L 214.42 408.42
  A 0.40 0.40 0.0 0 1 214.02 408.82
  L 210.16 408.84
  A 0.40 0.40 0.0 0 0 209.76 409.24
  Z"
/>
<path fill="#0b1011" d="
  M 221.16 415.66
  Q 220.21 410.84 220.23 415.76
  L 220.27 426.53
  Q 220.27 427.07 219.72 427.08
  L 216.64 427.13
  A 0.47 0.46 89.4 0 1 216.17 426.66
  L 216.16 404.77
  Q 216.16 404.46 216.46 404.47
  L 222.95 404.49
  Q 223.28 404.49 223.31 404.81
  Q 224.11 412.77 224.81 415.53
  Q 225.15 416.88 225.35 415.50
  L 226.85 404.81
  Q 226.90 404.47 227.24 404.47
  L 233.47 404.48
  Q 233.96 404.48 233.96 404.97
  L 233.97 426.51
  Q 233.97 427.11 233.36 427.12
  L 230.26 427.12
  Q 229.68 427.12 229.70 426.54
  Q 229.99 420.25 229.70 413.81
  Q 229.69 413.63 229.53 413.57
  Q 229.48 413.55 229.43 413.56
  Q 229.33 413.58 229.32 413.68
  Q 228.11 420.04 227.20 426.45
  Q 227.11 427.10 226.46 427.10
  L 223.74 427.10
  Q 223.05 427.10 222.95 426.41
  Q 222.20 420.99 221.16 415.66
  Z"
/>
<path fill="#0b1011" d="
  M 241.17 422.76
  L 244.87 422.76
  A 0.49 0.49 0.0 0 1 245.36 423.25
  L 245.34 426.60
  A 0.49 0.49 0.0 0 1 244.85 427.09
  L 236.52 427.13
  A 0.49 0.49 0.0 0 1 236.03 426.64
  L 236.01 404.97
  A 0.49 0.49 0.0 0 1 236.50 404.48
  L 244.56 404.48
  A 0.49 0.49 0.0 0 1 245.05 404.97
  L 245.09 408.37
  A 0.49 0.49 0.0 0 1 244.59 408.86
  L 241.14 408.82
  A 0.49 0.49 0.0 0 0 240.64 409.31
  L 240.63 412.82
  A 0.49 0.49 0.0 0 0 241.13 413.31
  L 244.42 413.28
  A 0.49 0.49 0.0 0 1 244.91 413.75
  L 245.00 416.94
  A 0.49 0.49 0.0 0 1 244.49 417.45
  L 241.15 417.35
  A 0.49 0.49 0.0 0 0 240.64 417.85
  L 240.68 422.27
  A 0.49 0.49 0.0 0 0 241.17 422.76
  Z"
/>
<path fill="#0b1011" d="
  M 251.79 417.89
  Q 251.42 416.04 251.29 417.92
  Q 251.02 421.88 251.27 426.32
  Q 251.32 427.09 250.55 427.10
  L 247.70 427.13
  Q 247.02 427.14 247.02 426.46
  L 247.03 404.97
  A 0.51 0.50 -90.0 0 1 247.53 404.46
  L 251.02 404.47
  Q 251.57 404.47 251.67 405.01
  L 253.22 413.50
  Q 253.26 413.72 253.48 413.70
  L 253.75 413.68
  Q 253.83 413.67 253.82 413.50
  L 253.71 404.76
  Q 253.71 404.47 253.99 404.48
  L 257.97 404.49
  A 0.23 0.23 0.0 0 1 258.20 404.72
  L 258.19 426.47
  Q 258.19 427.12 257.53 427.12
  L 254.37 427.14
  Q 253.53 427.14 253.38 426.32
  Q 252.62 422.10 251.79 417.89
  Z"
/>
<path fill="#15212f" d="
  M 278.68 423.47
  L 276.59 423.50
  A 0.48 0.48 0.0 0 0 276.12 423.95
  L 275.99 426.63
  A 0.48 0.48 0.0 0 1 275.52 427.09
  L 272.30 427.17
  A 0.48 0.48 0.0 0 1 271.81 426.64
  L 273.84 404.91
  A 0.48 0.48 0.0 0 1 274.32 404.48
  L 281.10 404.47
  A 0.48 0.48 0.0 0 1 281.57 404.90
  L 283.77 426.59
  A 0.48 0.48 0.0 0 1 283.30 427.12
  L 279.95 427.17
  A 0.48 0.48 0.0 0 1 279.46 426.74
  L 279.17 423.90
  A 0.48 0.48 0.0 0 0 278.68 423.47
  Z
  M 277.18 419.94
  L 278.24 419.92
  A 0.24 0.24 0.0 0 0 278.48 419.68
  L 278.48 419.51
  A 10.09 0.75 89.3 0 0 277.61 409.43
  L 277.57 409.43
  A 10.09 0.75 89.3 0 0 276.94 419.53
  L 276.94 419.70
  A 0.24 0.24 0.0 0 0 277.18 419.94
  Z"
/>
<path fill="#15212f" d="
  M 302.99 413.31
  L 306.35 413.32
  A 0.49 0.49 0.0 0 1 306.84 413.80
  L 306.93 416.90
  A 0.49 0.49 0.0 0 1 306.44 417.40
  L 303.00 417.39
  A 0.49 0.49 0.0 0 0 302.51 417.88
  L 302.51 422.29
  A 0.49 0.49 0.0 0 0 303.00 422.78
  L 306.88 422.75
  A 0.49 0.49 0.0 0 1 307.38 423.25
  L 307.35 426.65
  A 0.49 0.49 0.0 0 1 306.86 427.14
  L 298.48 427.10
  A 0.49 0.49 0.0 0 1 297.99 426.61
  L 297.96 404.97
  A 0.49 0.49 0.0 0 1 298.45 404.48
  L 306.55 404.47
  A 0.49 0.49 0.0 0 1 307.04 404.96
  L 307.07 408.36
  A 0.49 0.49 0.0 0 1 306.57 408.85
  L 303.01 408.81
  A 0.49 0.49 0.0 0 0 302.52 409.29
  L 302.50 412.82
  A 0.49 0.49 0.0 0 0 302.99 413.31
  Z"
/>
<path fill="#15212f" d="
  M 322.11 413.61
  Q 320.63 420.36 320.04 426.44
  Q 319.97 427.11 319.30 427.12
  L 316.55 427.15
  Q 315.84 427.15 315.72 426.45
  Q 314.70 420.27 313.60 413.89
  Q 313.57 413.73 313.38 413.73
  Q 313.08 413.74 313.08 414.04
  L 313.01 426.75
  A 0.38 0.38 0.0 0 1 312.63 427.13
  L 309.42 427.12
  Q 308.97 427.12 308.97 426.67
  L 308.94 404.76
  A 0.30 0.29 0.0 0 1 309.24 404.47
  L 315.50 404.48
  Q 315.82 404.48 315.86 404.80
  L 317.05 415.24
  Q 317.56 419.72 318.13 415.25
  L 319.47 404.73
  Q 319.50 404.48 319.76 404.48
  L 326.23 404.46
  Q 326.51 404.46 326.51 404.73
  L 326.53 426.69
  A 0.47 0.47 0.0 0 1 326.06 427.16
  L 322.92 427.16
  Q 322.41 427.16 322.43 426.65
  Q 322.65 419.96 322.41 413.64
  Q 322.37 412.46 322.11 413.61
  Z"
/>
</svg>
